<svg width="30" height="30" viewBox="0 0 30 30" fill="none" xmlns="http://www.w3.org/2000/svg">
<path d="M21.0682 11.5649C22.6523 11.5649 23.937 10.2706 23.937 8.67405C23.937 7.07748 22.6529 5.78259 21.0682 5.78259C19.4836 5.78259 18.1995 7.07692 18.1995 8.67405C18.1995 10.2712 19.4836 11.5649 21.0682 11.5649Z" fill="url(#paint0_linear_195_838)"/>
<path d="M27.1317 11.877C25.808 11.877 24.6966 12.7826 24.366 14.0112H17.4346C17.1693 13.0236 16.3995 12.2478 15.4197 11.9804V5.67898C16.6392 5.34585 17.5371 4.22567 17.5371 2.89146C17.5371 1.29489 16.253 0 14.6683 0C13.0837 0 11.7996 1.29433 11.7996 2.89146C11.7996 4.22567 12.6975 5.34585 13.917 5.67898V11.9804C12.6975 12.3135 11.7996 13.4337 11.7996 14.7679C11.7996 16.3645 13.0837 17.6594 14.6683 17.6594C15.9921 17.6594 17.1035 16.7538 17.434 15.5252H24.3655C24.696 16.7544 25.8074 17.6594 27.1311 17.6594C28.7152 17.6594 29.9999 16.3651 29.9999 14.7679C29.9999 13.1708 28.7158 11.8765 27.1311 11.8765L27.1317 11.877Z" fill="url(#paint1_linear_195_838)"/>
<path d="M21.0683 18.2425C19.7446 18.2425 18.6332 19.1481 18.3027 20.3767H11.6973C11.432 19.3891 10.6622 18.6133 9.68238 18.3459V11.7731C10.9019 11.44 11.7998 10.3198 11.7998 8.98557C11.7998 7.38901 10.5156 6.09412 8.93104 6.09412C7.34644 6.09412 6.06226 7.38845 6.06226 8.98557C6.06226 10.3198 6.96018 11.44 8.17971 11.7731V18.3459C6.96018 18.679 6.06226 19.7992 6.06226 21.1334C6.06226 22.73 7.34644 24.0248 8.93104 24.0248C10.2548 24.0248 11.3662 23.1193 11.6967 21.8907H18.3021C18.6326 23.1198 19.744 24.0248 21.0678 24.0248C22.6518 24.0248 23.9366 22.7305 23.9366 21.1334C23.9366 19.5363 22.6524 18.2419 21.0678 18.2419L21.0683 18.2425Z" fill="url(#paint2_linear_195_838)"/>
<path d="M14.6691 24.2173C13.085 24.2173 11.8003 25.5116 11.8003 27.1087C11.8003 28.7059 13.0845 29.9996 14.6691 29.9996C16.2537 29.9996 17.5379 28.7053 17.5379 27.1087C17.5379 25.5122 16.2537 24.2173 14.6691 24.2173Z" fill="url(#paint3_linear_195_838)"/>
<path d="M2.86879 17.6596C4.45317 17.6596 5.73757 16.3651 5.73757 14.7682C5.73757 13.1713 4.45317 11.8767 2.86879 11.8767C1.2844 11.8767 0 13.1713 0 14.7682C0 16.3651 1.2844 17.6596 2.86879 17.6596Z" fill="#3F5EAB"/>
<defs>
<linearGradient id="paint0_linear_195_838" x1="19.939" y1="10.0863" x2="23.5729" y2="5.61167" gradientUnits="userSpaceOnUse">
<stop stop-color="#3966B0"/>
<stop offset="0.99" stop-color="#12AAA4"/>
</linearGradient>
<linearGradient id="paint1_linear_195_838" x1="17.3198" y1="12.0467" x2="30.9992" y2="-0.0536974" gradientUnits="userSpaceOnUse">
<stop stop-color="#3966B0"/>
<stop offset="0.05" stop-color="#3074AD"/>
<stop offset="0.15" stop-color="#238BA9"/>
<stop offset="0.25" stop-color="#199CA6"/>
<stop offset="0.37" stop-color="#13A6A4"/>
<stop offset="0.51" stop-color="#12AAA4"/>
</linearGradient>
<linearGradient id="paint2_linear_195_838" x1="10.6394" y1="19.5621" x2="23.2251" y2="6.76953" gradientUnits="userSpaceOnUse">
<stop stop-color="#405FAB"/>
<stop offset="0.99" stop-color="#12AAA4"/>
</linearGradient>
<linearGradient id="paint3_linear_195_838" x1="13.5359" y1="28.5222" x2="17.176" y2="24.052" gradientUnits="userSpaceOnUse">
<stop stop-color="#3966B0"/>
<stop offset="0.48" stop-color="#3767AF"/>
<stop offset="0.66" stop-color="#346EAE"/>
<stop offset="0.78" stop-color="#2D7AAC"/>
<stop offset="0.88" stop-color="#238BA9"/>
<stop offset="0.97" stop-color="#17A1A5"/>
<stop offset="0.99" stop-color="#12AAA4"/>
</linearGradient>
</defs>
</svg>
