<svg width="40" height="38" viewBox="0 0 40 38" fill="none" xmlns="http://www.w3.org/2000/svg">
<path d="M17.1108 23.4587H24.2929L26.3948 24.8084H16.7943L12.9719 36.7548L12.485 38C7.72129 36.1683 3.31462 31.9344 1.47242 27.1784C-0.507533 22.3508 -0.490039 16.946 1.52112 12.131C3.40389 7.37496 7.9404 3.07685 12.7691 1.30941C16.5671 -0.249162 21.6473 -0.417873 25.6726 0.811306C30.4967 2.2378 34.6055 5.40239 37.1883 9.68068C40.0287 14.3805 40.8159 20.3416 39.0955 25.7002C37.9473 29.3932 35.7122 32.6632 32.6762 35.0917L32.1487 34.2803L27.3687 26.3429L34.7537 30.416C34.7943 30.416 34.8186 30.3759 34.7943 30.3357L25.1207 22.0689L37.6347 23.9568C37.6753 23.9568 37.6915 23.9408 37.6915 23.9167L37.6103 23.8524L25.8186 19.7632L38.0729 16.8308C38.1135 16.8308 38.1135 16.7906 38.0973 16.7665L25.5265 17.578L34.5265 10.8697L35.3705 10.2029C35.3867 10.1627 35.3056 10.1386 35.2812 10.1788L25.9485 14.8705L24.228 15.7221L30.3308 5.06925C30.3308 5.04515 30.3308 5.00498 30.2902 5.02908L22.3209 14.2921L23.8466 2.12082C23.8466 2.09672 23.806 2.07262 23.7654 2.09672L20.0892 13.9226L19.0666 10.2591L16.8836 1.74323C16.8592 1.71913 16.8187 1.70306 16.8024 1.74323L16.8592 2.7796L17.6789 14.3724L10.0991 4.61132C10.0829 4.59525 10.0585 4.61132 10.0423 4.62739L15.7718 15.4329L4.92959 9.57624C4.91336 9.57624 4.87278 9.60034 4.87278 9.61641L13.5157 16.638L14.5058 17.4494L2.20281 16.164C2.16223 16.1801 2.16223 16.2202 2.20281 16.2443L14.1243 19.6989L2.26774 23.1374C2.25901 23.1505 2.25435 23.1659 2.25435 23.1816C2.25435 23.1973 2.25901 23.2126 2.26774 23.2257L14.5058 21.8118L4.89712 29.8938C4.88089 29.8938 4.85654 29.934 4.89712 29.9581L5.02697 29.9179L12.7285 25.9251L14.5301 23.0811H16.5833L15.155 22.0849L19.9187 14.5251L17.1108 23.4587Z" fill="#3F8600"/>
</svg>
