<svg width="338" height="155" viewBox="0 0 338 155" fill="none" xmlns="http://www.w3.org/2000/svg">
<ellipse cx="51.8404" cy="5.18404" rx="51.8404" ry="5.18404" transform="matrix(-1 0 0 1 216.75 144.177)" fill="#DBEFFE"/>
<path d="M184.568 52.1926C184.971 53.5111 185.081 54.9016 184.889 56.2662C184.877 56.2995 184.873 56.3348 184.877 56.3699C184.88 56.4049 184.891 56.4388 184.909 56.469C184.927 56.4992 184.952 56.5251 184.981 56.5449C185.01 56.5647 185.043 56.5779 185.078 56.5835C186.721 56.8539 186.293 59.9952 187.701 59.109C190.318 57.5469 191.988 53.3567 191.988 53.3567C190.761 51.9546 189.944 50.2407 189.63 48.4044L184.568 52.1926Z" fill="#FCD0AC"/>
<path d="M184.568 52.1953C184.741 52.8263 184.869 53.4691 184.95 54.1185C185.557 54.4479 187.865 54.997 191.145 52.2913C190.305 51.1388 189.766 49.7951 189.577 48.3821L184.568 52.1953Z" fill="#F1BF96"/>
<path d="M181.311 46.4881C181.311 46.4881 178.356 41.2559 183.03 39.0086C184.011 38.53 185.091 38.2918 186.183 38.3136C187.274 38.3354 188.345 38.6166 189.307 39.134C190.567 40.1645 191.427 41.6044 191.736 43.2026C192.693 46.3721 190.199 50.2366 190.199 50.2366L181.311 46.4881Z" fill="#8E715D"/>
<path d="M186.831 53.8559C187.905 53.4611 188.835 52.7505 189.498 51.8173C190.161 50.8841 190.526 49.7718 190.546 48.6264C190.546 48.6264 191.338 49.295 191.561 47.1974C191.785 45.0997 191.168 45.3182 190.631 45.6389C190.631 45.6389 189.281 41.4687 185.97 41.6492C185.091 41.5857 184.211 41.7518 183.416 42.1314C182.62 42.5109 181.938 43.0909 181.434 43.8143C181.284 44.147 181.165 44.4933 181.08 44.8487C180.87 45.4979 181.38 46.5403 181.431 47.4078C181.294 48.1723 181.341 48.9587 181.568 49.702C182.697 52.1891 184.977 54.6629 186.831 53.8559Z" fill="#FCD0AC"/>
<path d="M180.722 44.5004C180.748 44.3897 180.797 44.2854 180.864 44.1937C180.931 44.102 181.016 44.0248 181.114 43.9665C181.211 43.9083 181.319 43.8702 181.432 43.8546C181.545 43.839 181.659 43.8461 181.769 43.8755C182.633 44.0708 183.876 44.6196 185.003 43.816C186.13 43.0124 187.362 41.7906 188.452 43.0852C189.227 44.0806 189.78 45.2306 190.073 46.4576L190.685 45.6057L190.268 43.3107C189.381 42.0566 188.344 40.9169 187.178 39.9175C186.581 39.825 186.197 40.2782 184.402 40.7136C182.607 41.1491 182.205 41.5389 182.1 41.6763L180.878 43.4159L180.722 44.5004Z" fill="#8E715D"/>
<path d="M181.65 142.912C181.018 143.774 180.089 144.478 178.972 144.943C177.318 145.737 176.575 146.44 176.74 147.312C176.905 148.184 177.269 148.275 178.972 148.301C180.674 148.327 182.823 148.639 183.931 147.937C185.039 147.234 186.047 146.14 186.973 145.841C187.683 145.598 188.276 145.183 188.665 144.656C189.055 144.129 189.22 143.518 189.139 142.912C189.006 141.246 181.65 142.912 181.65 142.912Z" fill="#0A7BA5"/>
<path d="M206.013 142.912C206.643 143.774 207.569 144.478 208.684 144.943C210.332 145.737 211.074 146.44 210.909 147.312C210.745 148.184 210.382 148.275 208.684 148.301C206.985 148.327 204.842 148.639 203.737 147.937C202.633 147.234 201.594 146.153 200.67 145.841C199.963 145.598 199.371 145.183 198.983 144.656C198.594 144.129 198.429 143.518 198.511 142.912C198.675 141.246 206.013 142.912 206.013 142.912Z" fill="#0A7BA5"/>
<path d="M179.008 90.596C178.323 94.5574 179.477 114.225 179.477 116.546C179.477 118.868 180.413 120.508 180.53 122.913C180.647 125.317 180.179 142.594 180.53 142.886C180.881 143.178 181.918 144.137 185.162 144.04C186.736 144.121 188.296 143.748 189.577 142.983C189.577 142.983 189.46 125.234 189.109 121.953C188.838 115.465 188.994 108.969 189.577 102.494C189.577 102.494 193.875 118.312 194.594 121.495C195.313 124.678 196.5 130.238 196.617 131.878C196.734 133.518 197.955 143.678 197.955 143.678C197.955 143.678 203.423 145.068 206.785 143.498C206.785 143.498 203.657 124.97 203.189 122.357C202.721 119.743 201.684 109.152 201.517 106.733C201.35 104.315 200.263 90.3319 200.263 90.3319L179.008 90.596Z" fill="#12AAE1"/>
<path d="M187.748 90.3319H183.19C182.809 97.2322 182.861 104.144 183.344 111.04C184.067 116.973 185.763 136.926 186.314 143.871C187.368 143.784 188.576 143.354 189.424 142.835C189.424 142.835 189.039 125.366 188.677 122.048C188.399 115.485 188.559 108.914 189.159 102.366L187.748 90.3319Z" fill="#0691C4"/>
<path d="M200.307 125.677C200.478 126.321 202.877 139.009 203.854 144.246C204.882 144.171 205.88 143.923 206.785 143.518C206.785 143.518 203.58 124.851 203.1 122.218C202.62 119.586 201.558 108.915 201.386 106.478C201.164 104.28 200.307 92.5725 200.135 90.3319C197.565 91.0181 194.343 92.1104 194.343 92.1104C195.56 94.8691 200.084 124.907 200.307 125.677Z" fill="#0691C4"/>
<path d="M181.726 95.6501C184.398 96.8752 187.42 97.107 190.247 96.304C190.247 96.304 186.171 79.9905 185.987 80.309C185.802 80.6276 181.726 90.8215 181.726 90.8215V95.6501Z" fill="white"/>
<path d="M178.891 74.3395C178.891 74.3395 177.667 97.2086 177.784 97.5272C180.183 98.3658 182.732 98.6914 185.265 98.4829C185.265 98.4829 187.647 77.5921 187.966 69.9803L186.976 56.9362L178.891 74.3395Z" fill="#F2A21D"/>
<path d="M186.389 85.0688C186.59 88.7574 188.066 98.3644 188.066 98.3644C192.399 98.5237 196.703 97.6078 200.596 95.6986C200.596 95.6986 198.6 79.0832 198.801 78.027C199.002 76.9707 198.7 70.851 198.7 70.851C198.7 70.851 202.296 75.974 204.711 79.4446C204.711 79.4446 209.377 80.9998 209.895 77.371C209.377 73.2237 207.687 70.3144 207.12 68.4367C206.382 65.8044 203.766 58.0081 201.652 56.9686C199.539 55.9291 197.962 55.9123 196.62 55.292C195.182 54.4991 193.793 53.6201 192.461 52.6597L186.959 55.6105L186.389 85.0688Z" fill="#F2A21D"/>
<path d="M208.34 71.6712C206.266 70.1159 202.31 71.7468 202.637 73.2264L198.331 63.9963L198.7 70.8202C198.7 70.8202 202.296 75.9766 204.711 79.4472C204.711 79.4472 212.497 81.7112 209.377 74.2632L209.066 73.5196C208.798 72.983 208.34 71.6712 208.34 71.6712Z" fill="#EC8018"/>
<path d="M192.427 52.6437L191.924 51.906L187.948 54.6221L185.969 56.9359L184.661 54.6221L183.872 54.4545L182.816 56.7347C182.816 56.7347 185.265 58.2101 185.365 58.2101L190.213 58.6125L193.735 55.3934C193.735 55.3934 194.423 54.0185 194.289 53.9347L192.427 52.6437Z" fill="#F2A21D"/>
<path d="M184.074 54.8271C183.118 57.996 179.042 57.1744 178.053 58.6498C177.063 60.1253 171.628 72.9682 171.628 72.9682C171.844 73.2023 172.045 73.4486 172.232 73.7059C173.524 75.5837 173.91 78.1993 173.205 79.0711C174.782 79.0711 178.891 74.343 178.891 74.343L186.959 70.7048L187.345 58.9684L185.969 57.0068L184.074 54.8271Z" fill="#F2A21D"/>
<path d="M179.293 64.0811C179.293 64.0811 175.871 74.057 173.188 75.7336C173.419 76.2622 173.539 76.833 173.539 77.4102C173.539 77.9874 173.419 78.5583 173.188 79.0868C174.764 79.0868 178.874 74.3588 178.874 74.3588C178.874 74.3588 179.259 68.2055 179.293 64.0811Z" fill="#EC8018"/>
<path d="M186.289 62.4862L183.236 96.1863L177.785 95.0798C177.785 96.5384 177.785 97.5276 177.785 97.5276C180.184 98.3663 182.732 98.6919 185.265 98.4833C185.265 98.4833 185.802 93.772 186.406 88.0212V85.0703L186.289 62.4862Z" fill="#EC8018"/>
<path d="M198.784 78.4321L198.331 93.7732L187.848 96.7408L188.099 98.4175C192.432 98.5768 197.455 97.5702 201.347 95.661C201.347 95.661 198.868 81.2153 198.784 78.4321Z" fill="#EC8018"/>
<path d="M205.61 95.8499C205.71 95.8308 205.813 95.8308 205.912 95.8499H205.61Z" fill="#FFC92E"/>
<path d="M195.781 73.8863C195.246 73.6034 194.777 73.2089 194.407 72.7295C194.013 72.0956 193.469 71.5693 192.821 71.1981C191.998 70.677 191.059 69.8704 190.916 69.9852C190.772 70.1001 190.729 70.7575 191.339 71.2734C191.948 71.7892 192.58 72.1182 192.439 72.3889C192.298 72.6596 191.317 72.5104 190.628 72.443C189.939 72.3756 187.333 71.5082 187.042 71.8376C186.751 72.1671 186.965 72.3142 188.066 72.6492C188.718 72.8017 189.353 73.0131 189.966 73.2809C189.966 73.2809 186.675 72.6436 186.417 72.7566C186.16 72.8697 185.985 73.2291 186.322 73.4481C186.658 73.6672 189.954 74.091 189.981 74.2017C188.86 74.0305 187.729 73.9253 186.596 73.8867C186.442 74.4285 187.474 74.7851 189.709 74.969C189.709 74.969 187.376 74.6679 187.346 75.0402C187.315 75.4125 188.36 75.6258 189.379 75.7284C190.114 75.7738 190.835 75.9505 191.508 76.2502C192.34 76.387 193.189 76.3815 194.019 76.2339C194.478 76.2166 194.935 76.2774 195.373 76.4138C195.373 76.4138 196.564 74.9511 195.781 73.8863Z" fill="#FCD0AC"/>
<path d="M205.674 74.1215C205.467 73.9385 205.251 73.7682 205.027 73.6114C205.027 73.6114 196.532 73.9374 195.61 73.6588C194.688 73.3802 193.384 72.7846 192.786 72.5578C192.188 72.331 191.245 75.322 191.491 75.5514C192.274 76.0292 193.149 76.275 194.026 76.2632C194.791 76.2256 195.034 76.5494 195.508 76.5291C195.949 76.5269 196.391 76.5732 196.828 76.6674C199.468 77.3505 206.632 78.8567 207.694 78.566C208.038 77.6598 207.129 75.4723 205.674 74.1215Z" fill="#FCD0AC"/>
<path d="M161.448 69.6503C160.917 69.2476 160.469 68.7216 160.135 68.1078C159.793 67.3086 159.281 66.6172 158.643 66.0959C157.837 65.3749 156.942 64.3019 156.778 64.4193C156.614 64.5366 156.494 65.3079 157.076 65.9953C157.658 66.6827 158.285 67.1522 158.106 67.454C157.927 67.7558 156.912 67.454 156.196 67.2863C155.981 65.9656 154.769 66.1319 154.426 66.484C154.083 66.8361 153.662 67.9402 154.781 68.4767C155.448 68.7401 154.792 67.797 155.405 68.1917C155.405 68.1917 154.443 67.3534 154.16 67.454C153.876 67.5546 153.832 68.5515 154.16 68.8533C154.488 69.1551 155.405 70.0041 155.316 69.2815C154.157 68.9359 155.347 69.0438 154.16 68.8533C153.936 69.4736 154.069 70.0246 154.781 70.1052C154.781 70.1052 154.235 69.4542 154.16 69.8901C154.085 70.326 154.16 70.9269 154.51 71.0084C155.278 71.1561 156.015 71.457 156.688 71.897C157.547 72.1651 158.44 72.2671 159.329 72.1988C159.813 72.2369 160.287 72.3673 160.731 72.5844C160.731 72.5844 162.149 71.0084 161.448 69.6503Z" fill="#FCD0AC"/>
<path d="M172.443 73.3698C172.277 73.1126 172.097 72.8662 171.906 72.6321C171.906 72.6321 162.82 70.486 161.925 69.916C161.03 69.3459 159.821 68.3232 159.254 67.904C158.687 67.4849 156.822 70.419 157.016 70.7375C157.707 71.4805 158.562 72.0017 159.493 72.2465C160.313 72.4309 160.478 72.8501 160.985 72.9674C161.452 73.0947 161.907 73.2745 162.343 73.504C164.939 75.0129 172.085 78.735 173.293 78.735C173.92 77.8632 173.592 75.2477 172.443 73.3698Z" fill="#FCD0AC"/>
<rect width="3.92013" height="8.4245" rx="1" transform="matrix(0.952009 -0.30607 0.261463 0.965213 154.194 63.5431)" fill="#4C6FA7"/>
<rect width="3.18085" height="6.83577" rx="1" transform="matrix(0.952009 -0.30607 0.261463 0.965213 154.972 64.1624)" fill="#D1F0FA"/>
<ellipse cx="1.65003" cy="2.55277" rx="1.65003" ry="2.55277" transform="matrix(-0.967756 0.251888 0.251888 0.967756 156.848 65.8655)" fill="#FCD0AC"/>
<path d="M160.995 8.78004C161.003 8.73177 161.011 8.68351 161.023 8.63525C161.059 8.4985 161.099 8.36175 161.146 8.22902C161.146 8.22098 161.154 8.20891 161.158 8.20087C161.21 8.0601 161.269 7.91933 161.337 7.78258C161.42 7.60963 161.52 7.44473 161.627 7.28787L161.635 7.27581C161.734 7.13102 161.845 6.99025 161.964 6.86154C161.98 6.84545 161.992 6.82937 162.004 6.81328C162.111 6.69664 162.234 6.58805 162.358 6.48347C162.385 6.46336 162.405 6.43521 162.433 6.4151C162.58 6.29444 162.739 6.18584 162.906 6.08932L172.387 0.542971C173.006 0.18099 173.697 0 174.388 0C175.08 0 175.771 0.18099 176.39 0.542971L185.867 6.08529C186.034 6.18182 186.193 6.29444 186.34 6.41108C186.368 6.43119 186.391 6.45532 186.415 6.47945C186.538 6.58402 186.657 6.69262 186.769 6.80926C186.785 6.82534 186.796 6.84143 186.808 6.85752C186.928 6.99025 187.039 7.12699 187.138 7.27179L187.146 7.28385C187.253 7.44071 187.349 7.60561 187.436 7.77856C187.71 8.3336 187.869 8.94896 187.869 9.59248V20.6771C187.869 21.3207 187.71 21.936 187.436 22.4911C187.353 22.664 187.253 22.8249 187.146 22.9858L187.138 22.9978C187.039 23.1426 186.928 23.2834 186.808 23.4121C186.793 23.4282 186.781 23.4443 186.765 23.4604C186.657 23.577 186.538 23.6856 186.415 23.7902C186.387 23.8143 186.364 23.8384 186.34 23.8585C186.193 23.9792 186.034 24.0878 185.867 24.1843L184.068 25.2381L186.824 31.8583L177.959 28.8096L176.39 29.7266C176.235 29.8192 176.076 29.8956 175.914 29.9639C175.588 30.1007 175.25 30.1892 174.905 30.2334C174.563 30.2777 174.214 30.2777 173.872 30.2334C173.356 30.165 172.851 29.9961 172.387 29.7226L162.91 24.1803C162.743 24.0838 162.584 23.9712 162.437 23.8545C162.409 23.8344 162.385 23.8062 162.362 23.7861C162.238 23.6816 162.119 23.573 162.012 23.4563C161.996 23.4402 161.984 23.4242 161.968 23.4081C161.849 23.2753 161.738 23.1386 161.639 22.9938L161.631 22.9817C161.524 22.8249 161.428 22.66 161.341 22.487C161.273 22.3503 161.214 22.2095 161.162 22.0647C161.162 22.0567 161.158 22.0486 161.154 22.0406C161.106 21.9079 161.063 21.7711 161.031 21.6303C161.019 21.5861 161.011 21.5378 161.003 21.4896C160.979 21.381 160.96 21.2764 160.944 21.1678C160.924 21.0069 160.912 20.842 160.912 20.6731V9.59248C160.912 9.42356 160.924 9.25866 160.944 9.09778C160.956 8.98918 160.979 8.88461 161.003 8.78004H160.995Z" fill="#DBEFFE"/>
<path d="M176.024 8.57678V16.3371L169.026 12.9879C168.528 14.0344 168.268 15.1782 168.264 16.3371C168.264 17.872 168.719 19.3724 169.572 20.6486C170.424 21.9247 171.636 22.9194 173.054 23.5068C174.472 24.0941 176.033 24.2478 177.538 23.9484C179.043 23.6489 180.426 22.9098 181.511 21.8245C182.597 20.7392 183.336 19.3565 183.635 17.8511C183.935 16.3457 183.781 14.7854 183.194 13.3674C182.606 11.9494 181.612 10.7374 180.335 9.88464C179.059 9.03192 177.559 8.57678 176.024 8.57678Z" fill="#63CDF6"/>
<path d="M174.799 13.8867V4.08411C172.918 4.08794 171.078 4.61294 169.488 5.59869C167.898 6.58444 166.624 7.99086 165.813 9.65609L174.799 13.8867Z" fill="#12AAE1"/>
<path d="M156.684 23.8421C156.676 23.7966 156.669 23.751 156.657 23.7055C156.623 23.5764 156.585 23.4474 156.539 23.3221C156.539 23.3145 156.531 23.3031 156.527 23.2955C156.478 23.1627 156.42 23.0298 156.356 22.9008C156.275 22.7375 156.18 22.5819 156.077 22.4339L156.069 22.4225C155.974 22.2858 155.867 22.153 155.752 22.0315C155.737 22.0163 155.725 22.0011 155.714 21.9859C155.611 21.8759 155.492 21.7734 155.374 21.6747C155.347 21.6557 155.328 21.6291 155.301 21.6102C155.16 21.4963 155.007 21.3938 154.847 21.3027L145.731 16.0681C145.135 15.7265 144.471 15.5557 143.806 15.5557C143.141 15.5557 142.477 15.7265 141.881 16.0681L132.769 21.2989C132.608 21.39 132.456 21.4963 132.314 21.6064C132.288 21.6253 132.265 21.6481 132.242 21.6709C132.123 21.7696 132.009 21.8721 131.902 21.9822C131.887 21.9973 131.875 22.0125 131.864 22.0277C131.749 22.153 131.642 22.282 131.547 22.4187L131.539 22.4301C131.436 22.5781 131.344 22.7337 131.26 22.897C130.997 23.4208 130.844 24.0016 130.844 24.6089V35.0705C130.844 35.6778 130.997 36.2586 131.26 36.7824C131.34 36.9457 131.436 37.0975 131.539 37.2493L131.547 37.2607C131.642 37.3974 131.749 37.5302 131.864 37.6517C131.879 37.6669 131.89 37.6821 131.906 37.6972C132.009 37.8073 132.123 37.9098 132.242 38.0085C132.269 38.0313 132.291 38.0541 132.314 38.073C132.456 38.1869 132.608 38.2894 132.769 38.3805L134.499 39.375L131.848 45.6231L140.373 42.7458L141.881 43.6113C142.03 43.6986 142.183 43.7707 142.339 43.8352C142.653 43.9643 142.977 44.0478 143.31 44.0896C143.638 44.1313 143.974 44.1313 144.302 44.0896C144.799 44.025 145.284 43.8656 145.731 43.6075L154.843 38.3767C155.004 38.2856 155.156 38.1793 155.298 38.0692C155.324 38.0503 155.347 38.0237 155.37 38.0047C155.489 37.906 155.603 37.8035 155.706 37.6934C155.722 37.6783 155.733 37.6631 155.748 37.6479C155.863 37.5226 155.97 37.3936 156.065 37.2569L156.073 37.2455C156.176 37.0975 156.268 36.9419 156.352 36.7786C156.417 36.6496 156.474 36.5167 156.524 36.3801C156.524 36.3725 156.527 36.3649 156.531 36.3573C156.577 36.232 156.619 36.103 156.65 35.9701C156.661 35.9283 156.669 35.8828 156.676 35.8372C156.699 35.7348 156.718 35.6361 156.734 35.5336C156.753 35.3817 156.764 35.2261 156.764 35.0667V24.6089C156.764 24.4495 156.753 24.2939 156.734 24.142C156.722 24.0395 156.699 23.9408 156.676 23.8421H156.684Z" fill="#DBEFFE"/>
<path d="M143.415 21.2583V29.6824L135.819 26.0467C135.278 27.1827 134.995 28.4243 134.991 29.6824C134.991 31.3485 135.485 32.9772 136.411 34.3625C137.336 35.7479 138.652 36.8276 140.191 37.4652C141.731 38.1028 143.424 38.2696 145.058 37.9446C146.693 37.6195 148.194 36.8172 149.372 35.6391C150.55 34.461 151.352 32.9599 151.677 31.3258C152.002 29.6917 151.835 27.9979 151.198 26.4586C150.56 24.9193 149.481 23.6037 148.095 22.678C146.71 21.7524 145.081 21.2583 143.415 21.2583Z" fill="#63CDF6"/>
<path d="M141.471 27.2195V23.0723C140.712 23.0739 139.968 23.296 139.326 23.7131C138.684 24.1301 138.17 24.7251 137.842 25.4296L141.471 27.2195Z" fill="#12AAE1"/>
<path d="M153.599 77.4865C154.229 77.447 155.045 76.6655 155.905 76.6528C156.764 76.6401 158.367 76.2958 158.422 76.4483C158.477 76.6009 158.407 76.9713 157.889 77.1899C157.371 77.4085 155.996 77.6864 156.028 77.8629C156.839 78.1476 157.671 78.3712 158.516 78.5318C159.248 78.6903 160.762 79.0528 160.853 79.3491C160.944 79.6454 160.75 79.7158 160.428 79.738C160.106 79.7602 158.468 79.4429 158.192 79.4173C157.916 79.3917 157.582 79.293 157.722 79.5087C158.662 79.8546 159.619 80.1524 160.589 80.4012C161.241 80.6831 160.197 81.5311 160.005 81.6947C159.813 81.8583 159.734 81.9023 159.504 82.0482C159.275 82.194 159.157 82.1737 159.076 82.2971C158.995 82.4205 158.701 82.4327 158.59 82.4729C158.151 82.4748 156.127 81.4814 155.725 81.4544C154.699 81.2508 153.739 80.8014 152.927 80.1448C152.255 79.5769 151.418 79.2415 150.539 79.1888C150.417 78.7699 150.381 78.3308 150.432 77.8975C150.483 77.4642 150.621 77.0454 150.837 76.666C151.725 77.0388 152.651 77.3139 153.599 77.4865Z" fill="#DDAE86"/>
<path d="M122.88 103.462C123.461 109.721 124.592 114.638 124.495 116.19C123.81 119.802 123.81 123.511 124.495 127.123C125.302 130.843 126.724 135.921 126.627 138.848C126.53 141.775 125.755 143.538 125.755 145.689C125.755 147.84 125.949 148.422 128.581 148.422C131.214 148.422 130.616 145.188 130.325 143.749C130.035 142.309 129.453 139.738 129.372 138.46C129.146 135.339 130.035 128.174 130.132 126.169C130.254 122.991 129.999 119.809 129.372 116.691C129.433 114.515 129.698 112.349 130.164 110.222C130.681 106.713 131.004 103.478 131.004 103.478L122.88 103.462Z" fill="#DDAE86"/>
<path d="M139.515 102.574C140.937 106.535 141.949 110.632 142.535 114.8C142.729 115.771 144.296 119.118 145.572 122.644C146.848 126.17 149.06 137.103 149.852 139.254C150.423 141.227 151.347 143.079 152.581 144.72C153.55 145.593 155.811 145.981 155.989 147.162C156.167 148.343 149.949 148.132 149.755 147.647C149.561 147.162 149.27 144.72 147.994 144.041C146.718 143.361 145.362 142.181 145.943 141C146.525 139.82 147.122 139.383 146.428 137.976C145.733 136.569 143.327 130.051 141.373 127.868C139.418 125.685 138.627 119.199 137.464 117.534C135.27 113.687 133.38 109.675 131.811 105.533C131.133 103.269 139.515 102.574 139.515 102.574Z" fill="#DDAE86"/>
<path d="M145.959 141.908C146.381 143.845 146.635 145.814 146.718 147.795H147.558C147.443 146.35 147.481 144.897 147.671 143.46C147.994 141.698 145.959 141.908 145.959 141.908Z" fill="#0A7BA5"/>
<path d="M128.581 148.429C125.948 148.429 125.755 147.846 125.755 145.696C125.764 145.05 125.824 144.407 125.932 143.771C125.885 144.025 125.9 144.288 125.975 144.535C126.05 144.783 126.183 145.009 126.364 145.195C126.544 145.38 126.766 145.519 127.012 145.601C127.257 145.682 127.518 145.704 127.773 145.663C129.792 145.663 130.503 144.693 130.325 143.755C130.616 145.226 131.359 148.429 128.581 148.429Z" fill="#0C8EBD"/>
<path d="M147.994 144.042C146.718 143.346 145.361 142.182 145.943 141.001C146.153 140.581 146.379 140.257 146.524 139.934C147.833 140.751 148.938 141.857 149.754 143.168C150.481 144.786 151.806 146.516 154.196 145.53C155.068 145.95 155.94 146.37 156.053 147.147C156.247 148.311 150.013 148.117 149.819 147.632C149.625 147.147 149.27 144.721 147.994 144.042Z" fill="#0C8EBD"/>
<path d="M122.67 47.4227C123.007 46.9088 123.434 46.4596 123.93 46.0965C124.057 45.9798 124.192 45.8717 124.333 45.7731C124.788 45.469 125.283 45.2295 125.803 45.0615C129.179 43.9941 131.165 46.1289 132.263 48.4254C132.263 48.4254 126.885 58.3879 126.175 57.2558C126.069 57.0862 125.938 56.9335 125.787 56.8029C125.948 57.466 126.094 58.2261 126.094 58.2261L124.075 58.4687C122.854 56.7801 121.991 54.8593 121.539 52.8244C121.358 51.8941 121.365 50.9368 121.559 50.0091C121.753 49.0813 122.131 48.2019 122.67 47.4227Z" fill="#A46341"/>
<path d="M125.286 55.6394C127.386 55.6394 128.743 58.0168 130.826 57.758C130.861 58.0897 130.915 58.4191 130.988 58.7446C131.44 60.9441 134.448 61.3263 136.063 61.2131L135.542 66.8633H124.592V60.6368C126.578 59.8443 125.609 56.6098 125.286 55.6394Z" fill="#DDAE86"/>
<g style="mix-blend-mode:multiply" opacity="0.3">
<g style="mix-blend-mode:multiply" opacity="0.3">
<path d="M130.988 58.7495C131.028 58.9281 131.087 59.1017 131.166 59.267C129.318 59.5406 127.433 59.1937 125.803 58.2805C125.764 57.3807 125.59 56.492 125.287 55.6443C127.386 55.6443 128.743 58.0217 130.826 57.7629C130.861 58.0946 130.915 58.424 130.988 58.7495Z" fill="#F0BB8F"/>
</g>
</g>
<path d="M133.055 51.76C133.314 51.1698 133.43 50.5266 133.393 49.883C133.357 49.2394 133.169 48.6135 132.845 48.0564C131.957 46.7949 130.164 44.272 127.629 44.8219C124.576 45.3556 133.055 51.76 133.055 51.76Z" fill="#A46241"/>
<path d="M125.286 55.643C125.798 56.58 126.612 57.3154 127.595 57.7293C128.923 58.3143 130.346 58.6487 131.795 58.7159C132.376 58.538 132.877 58.5541 133.281 56.8075C133.832 55.4898 133.989 54.0403 133.733 52.6349C133.313 51.1146 132.941 47.7831 130.713 47.2979C129.805 47.1636 128.878 47.3119 128.058 47.7227C127.237 48.1335 126.563 48.7869 126.126 49.5944C125.426 50.8739 125.247 52.3745 125.625 53.7832C125.625 53.7832 124.204 52.7643 123.784 52.829C123.364 52.8937 123.122 53.2656 123.606 54.0257C124.091 54.7859 124.252 54.5756 124.398 54.9799C124.543 55.3843 124.737 55.8048 124.995 55.8856C125.254 55.9665 125.286 55.643 125.286 55.643Z" fill="#DDAE86"/>
<path d="M129.954 47.1964C129.954 47.1964 128.904 52.2908 125.738 54.0537L123.154 50.5442L125.545 47.3096L129.954 47.1964Z" fill="#A46341"/>
<path d="M129.34 47.5542C130.439 48.5713 131.745 49.3382 133.168 49.8022C133.168 49.8022 132.408 46.3412 129.937 45.3708L129.34 47.5542Z" fill="#A46341"/>
<path d="M124.273 84.3559C123.321 86.523 120.801 90.3075 121.189 94.9976C121.576 99.6877 124.467 113.678 124.273 115.053C124.231 115.352 123.634 124.291 124.256 126.776C124.566 127.087 125.719 138.005 126.742 138.273C127.472 138.465 129.216 138.895 129.538 137.341C130.056 134.841 130.105 127.709 130.16 126.776C130.47 123.048 129.849 120.251 129.849 119.319C129.849 118.387 129.538 116.522 129.538 115.901C129.849 114.037 130.781 103.783 131.402 102.54C131.402 102.54 131.164 103.646 131.713 105.336C132.937 109.106 135.753 114.969 136.374 115.901C136.685 116.212 137.928 119.319 138.238 119.94C138.549 120.251 139.792 125.533 140.413 126.776C140.724 127.709 143.21 132.369 144.453 134.234C146.317 139.827 150.265 141.163 150.357 140.448C150.5 139.326 147.014 127.999 146.939 127.398C146.796 126.255 144.764 119.63 144.453 119.008C144.111 118.323 142.434 114.485 142.589 114.347C142.589 114.347 140.36 97.2133 139.391 94.6741C138.593 92.8581 138.222 90.8826 138.308 88.9005C138.306 87.2854 138.027 85.6828 137.485 84.1618C137.194 83.4664 124.273 84.3559 124.273 84.3559Z" fill="#00ABE1"/>
<path d="M125.025 87.0032C125.412 87.0032 133.951 86.1396 137.617 86.3822C137.65 86.9801 138.964 89.0414 138.931 89.6394C137.639 90.3833 129.24 91.4022 124.783 90.5127C123.675 93.152 123.232 96.023 123.49 98.874C123.943 102.367 125.204 112.061 125.188 113.727C124.267 113.597 124.207 115.816 124.256 115.59C124.45 114.215 121.569 99.7797 121.165 95.0896C121.036 92.2789 121.667 89.4855 122.99 87.0032C123.91 87.1002 124.799 87.1002 125.025 87.0032Z" fill="#0596CB"/>
<path d="M154.037 77.4277C154.037 77.4277 148.976 74.997 144.375 73.2869C143.915 73.1159 142.995 72.8268 140.694 69.1461C140.234 68.686 137.587 61.7115 136.063 61.2132C135.101 61.0901 134.624 60.7647 133.69 61.0262L131.898 66.1853L124.743 60.6704C124.08 60.4484 123.013 60.9005 122.391 61.2132C121.054 62.0216 120.378 62.3812 119.962 63.8887C119.599 64.9335 120.303 67.2586 120.216 68.3613C120.787 68.6333 120.396 67.7258 120.899 68.1098C121.658 68.9508 121.626 72.7999 122.773 74.8862C123.919 76.9725 124.921 82.5036 123.677 83.9106C122.551 85.329 121.692 86.94 121.141 88.6654C122.353 90.2827 128.215 91.4957 131.074 91.4633C133.894 91.4829 136.703 91.1184 139.424 90.3798C139.112 88.5709 138.57 86.8098 137.809 85.1398C137.147 83.7004 137.809 76.5197 138.487 73.9806C139.166 71.4414 138.487 68.1584 138.487 67.3982C138.487 66.6381 136.565 72.7335 138.487 74.4546C141.056 76.755 142.995 77.4313 145.295 78.3479C149.436 79.7317 152.81 81.9583 153.117 80.6483C153.31 79.8215 154.037 77.4277 154.037 77.4277Z" fill="#63CDF6"/>
<path d="M137.415 84.0246C137.415 84.0246 127.725 84.9303 124.091 82.5367C123.632 83.0854 123.281 83.7166 123.057 84.3966C127.731 86.5768 133.012 87.0794 138.013 85.8198C138.013 85.8198 138.029 84.3966 137.415 84.0246Z" fill="#0596CB"/>
<path opacity="0.5" d="M138.671 74.9949C140.051 76.3751 146.032 78.5168 147.872 79.1357C150.633 80.064 152.013 81.4442 152.933 80.5241L151.093 79.1438C149.713 78.2236 146.492 75.8691 143.272 73.6227C139.131 71.3188 138.331 68.3489 137.669 68.5915C137.669 68.5915 135.978 70.1555 133.523 71.4332C131.652 72.1238 129.596 72.1238 127.725 71.4332C127.725 71.4332 127.887 76.0586 128.613 75.4117C129.34 74.7648 134.944 75.7351 135.445 75.4117C136.278 75.346 137.115 75.346 137.949 75.4117C138.062 74.7809 138.175 74.1987 138.288 73.7944C138.982 71.2553 138.288 67.9722 138.288 67.2121C138.288 66.452 135.45 73.6146 138.671 74.9949Z" fill="#12AAE1"/>
<path d="M137.617 83.8962C137.617 82.8611 137.791 79.3705 137.904 78.3031L129.227 81.2162C131.876 81.7822 137.617 83.8962 137.617 83.8962Z" fill="#12AAE1"/>
<rect width="4.25472" height="9.14356" rx="1" transform="matrix(-0.980835 -0.194839 -0.149012 0.988835 151.17 67.4391)" fill="#CE4F37"/>
<rect width="3.45235" height="7.41923" rx="1" transform="matrix(-0.980835 -0.194839 -0.149012 0.988835 150.409 68.2092)" fill="#D1F0FA"/>
<path d="M141.765 74.3261L142.06 76.8806C143.57 76.4054 145.121 76.0736 146.693 75.8897C147.751 75.6424 148.768 75.2398 149.709 74.6948C150.446 74.1696 151.002 73.4286 151.301 72.5736C151.495 71.965 151.504 71.3124 151.328 70.6982C151.031 70.0976 150.884 70.2286 150.585 69.6119C150.286 68.9952 149.866 69.1577 149.746 69.5297C149.682 70.0947 149.566 70.6528 149.403 71.1974C149.274 71.2122 148.751 71.8913 148.637 71.8882C148.523 71.8851 147.234 72.1316 146.903 72.2187C146.572 72.3058 147.045 71.7627 147.296 71.5384C147.647 71.2849 148.026 71.0719 148.426 70.9032C148.778 70.716 148.972 70.2866 148.827 70.1568C148.682 70.027 147.371 70.504 147.104 70.5837C146.584 70.9122 146.083 71.269 145.602 71.6526C145.162 72.0641 144.831 72.5776 144.637 73.1479C144.552 73.4018 144.355 73.6688 143.757 73.8356L141.765 74.3261Z" fill="#DDAE86"/>
<path d="M122.468 61.8034C120.119 63.1491 119.116 65.4464 120.358 69.1614C121.6 72.8765 126.656 81.4584 129.454 81.0539C132.253 80.6493 139.621 79.5542 144.934 76.287C144.934 76.287 144.896 72.5795 143.584 73.1868C141.511 73.5964 139.408 73.8393 137.295 73.9131C135.344 74.1638 133.424 74.6147 131.565 75.2585C131.565 75.2585 129.528 71.7004 127.942 67.9601C126.356 64.2197 124.939 60.3947 122.468 61.8034Z" fill="#9EDAF1"/>
<ellipse cx="40.9539" cy="5.18404" rx="40.9539" ry="5.18404" transform="matrix(-1 0 0 1 329.705 144.114)" fill="#DBEFFE"/>
<path d="M273.387 57.5369C273.448 56.3555 273.101 55.1883 272.401 54.2219C271.246 52.0837 271.043 51.4206 271.06 50.8074C270.853 49.8974 270.528 49.0172 270.091 48.1885C269.887 47.7741 269.038 46.4149 269.225 46.2491C269.412 46.0834 269.768 45.9342 270.278 46.7464C270.55 47.2736 270.899 47.7594 271.314 48.1885C271.858 48.752 272.028 49.3156 272.198 49.3487C272.368 49.3819 274.049 48.6028 274.457 48.7354C275.016 49.0877 275.49 49.5551 275.845 50.1048C276.2 50.6545 276.428 51.2733 276.512 51.9179C276.429 52.7945 276.429 53.6768 276.512 54.5534C276.621 55.5604 276.808 56.5579 277.073 57.5369H273.387Z" fill="#F0BB8F"/>
<path d="M272.742 54.3855C271.778 54.3855 270.285 51.8699 269.273 51.4983C268.69 51.4242 268.643 50.9643 269.052 50.8456C269.885 50.8112 270.71 51.0183 271.414 51.439C271.934 51.8099 272.742 54.3855 272.742 54.3855Z" fill="#F0BB8F"/>
<path d="M264.543 143.661C263.873 145.112 264.495 146.5 264.543 146.644C264.591 146.787 266.903 147.617 267.238 147.298C267.573 146.979 268.163 147.585 269.805 148.127C271.448 148.653 275.61 149.754 276.662 148.558C277.715 147.361 276.997 146.149 275.211 145.671C273.425 145.192 270.874 143.294 270.634 142.624C270.395 141.954 264.543 143.661 264.543 143.661Z" fill="#5375AD"/>
<path d="M252.184 145.94C251.483 147.423 252.136 148.859 252.184 149.018C252.232 149.162 254.608 150.023 254.959 149.688C255.31 149.353 256.251 150.278 257.941 150.821C259.631 151.363 262.98 151.825 264.08 150.581C265.165 149.337 264.431 148.109 262.597 147.615C260.763 147.12 257.877 146.035 257.622 145.334C257.383 144.632 252.184 145.94 252.184 145.94Z" fill="#5375AD"/>
<path d="M251.738 89.0606C250.319 92.2986 251.308 96.9243 251.738 102.252C252.169 107.579 252.472 115.22 251.738 119.845C251.005 124.471 250.638 144.649 252.089 146.196C253.572 147.775 258.244 147.392 258.946 146.467C259.329 145.941 259.329 139.959 259.695 134.6C259.982 130.389 260.668 124.04 260.955 121.696C261.609 116.368 263.475 101.55 263.475 101.55V88.1195L251.738 89.0446V89.0606Z" fill="#63CDF6"/>
<path d="M262.566 113.275C262.566 113.275 262.645 142.161 263.793 143.549C264.958 144.937 270.826 144.713 271.511 143.549C271.83 143.023 271.32 138.189 271.288 132.128C271.256 124.711 271.639 112.812 271.511 109.877C271.272 104.55 270.587 94.9951 270.315 91.0234C270.044 87.0677 261.274 91.8529 261.274 91.8529L262.55 113.259L262.566 113.275Z" fill="#63CDF6"/>
<path d="M268.769 144.488L264.224 99.3479L262.422 109.413L262.565 113.289C262.565 113.289 262.645 142.175 263.793 143.563C264.431 144.329 266.711 144.6 268.769 144.504V144.488Z" fill="#12AAE1"/>
<path d="M270.316 91.0385C270.124 88.2152 266.648 89.6667 263.459 90.9268V88.1195L251.722 89.0446C250.303 92.2826 251.292 96.9083 251.722 102.236C252.153 107.563 252.456 115.204 251.722 119.829C250.989 124.455 250.622 144.633 252.073 146.18C252.886 147.041 255.071 147.312 257 147.249C256.873 143.723 256.187 120.053 257.192 118.011C258.276 115.778 257.495 96.2703 257.495 96.2703C257.495 96.2703 265.787 95.8077 270.236 94.1808L270.395 93.9734C270.395 92.809 270.379 91.8041 270.316 91.0225V91.0385Z" fill="#12AAE1"/>
<path d="M252.057 87.4198L251.467 89.7485C251.467 89.7485 255.326 94.454 270.347 91.3277L270.316 89.1743L252.057 87.4038V87.4198Z" fill="#4C6FA7"/>
<path d="M254.959 55.5623C250.925 57.8751 248.198 57.8751 248.198 60.3953C248.198 62.9155 249.809 68.1633 250.415 72.0872C251.021 76.027 251.738 86.3949 252.041 87.3998C252.344 88.4047 260.525 92.2966 270.3 89.1703C270.3 89.1703 267.796 59.8052 267.095 58.0825C266.393 56.3758 266.951 56.6948 262.103 56.0887C257.256 55.4825 254.944 55.5623 254.944 55.5623H254.959Z" fill="#547DBF"/>
<path d="M253.034 70.9275C253.321 70.5606 251.34 66.3485 251.34 66.3166C251.34 66.1093 252.137 57.0015 252.137 57.0015C250.526 57.4481 248.973 58.4128 247.729 59.8324C245.672 62.1771 243.622 65.6946 242.346 67.481C240.305 70.3043 237.992 74.4515 238.551 76.1741C239.699 79.779 242.824 79.5876 243.781 79.1888C244.738 78.79 252.755 77.587 255.003 74.668C255.003 74.668 254.438 73.2244 253.034 70.9275Z" fill="#547DBF"/>
<path d="M243.191 73.4834C243.191 73.4834 248.083 70.8276 250.475 69.7429L251.853 68.9555L252.247 65.4119L252.791 62.0228C252.791 62.0228 246.45 68.2986 243.978 72.3022L243.191 73.4834Z" fill="#4C6FA7"/>
<path d="M265.085 56.5852C267.509 56.4735 274.685 62.0563 274.685 62.0563L272.564 55.8515L276.79 53.9374C276.79 53.9374 281.175 62.8104 280.968 65.8251C280.934 68.3442 280.968 70.7292 276.609 70.1843C273.531 69.642 267.891 68.5496 267.891 68.5496L265.085 56.5692V56.5852Z" fill="#547DBF"/>
<path d="M260.493 50.972L256.985 52.2002L254.433 52.5033C254.433 52.5033 254.433 55.5658 253.795 56.6823C253.795 56.6823 255.39 57.7032 258.324 57.5756C260.987 57.4639 262.151 56.8418 262.151 56.8418C261.035 56.1879 260.509 50.9561 260.509 50.9561L260.493 50.972Z" fill="#F0BB8F"/>
<g style="mix-blend-mode:multiply" opacity="0.3">
<path d="M261.736 56.4267C261.194 55.5015 260.827 53.5396 260.652 52.2317C260.19 51.8169 259.743 51.482 259.52 51.3065L256.984 52.1998L254.433 52.5028C254.433 52.5028 254.465 53.2684 254.321 54.4009C255.996 55.3899 259.743 57.1126 261.736 56.4267Z" fill="#E0A97B"/>
</g>
<path d="M261.402 44.2069C262.454 45.3873 262.008 46.6314 262.151 47.3333C262.295 48.0351 263.076 49.0559 262.917 50.3958C262.757 51.8473 262.454 55.1172 261.274 55.4362C259.281 55.9785 256.331 54.5749 255.709 54.3037C254.593 53.8092 253.987 53.3307 253.668 52.1185C253.668 52.1185 253.365 52.0068 253.03 51.7037C252.695 51.4007 251.946 50.6031 251.674 49.997C251.467 49.5185 251.419 48.9124 252.073 48.9762C252.775 49.04 253.317 49.8854 253.317 49.8854C253.317 49.8854 253.508 46.3124 255.342 45.148C257.176 43.9996 260.668 43.3616 261.402 44.191V44.2069Z" fill="#F0BB8F"/>
<path d="M261.896 45.0217C261.896 45.0217 261.721 43.283 260.62 41.8953C259.759 40.8107 257.383 39.9334 255.517 40.3003C253.046 40.7947 250.431 43.2033 250.478 45.4842C250.526 47.494 251.068 47.7971 251.738 49.105C251.738 49.105 252.551 48.467 253.747 50.5246H254.21C254.21 50.5246 253.285 45.3088 257.192 45.4045C260.844 45.4842 261.386 45.4523 261.896 45.0217Z" fill="#694329"/>
<path d="M275.61 64.369L274.701 62.0561C274.701 62.0561 269.694 58.1642 266.632 56.9519C269.454 58.6746 275.61 64.369 275.61 64.369Z" fill="#4C6FA7"/>
<path d="M268.306 67.4331C268.147 65.7901 267.637 63.238 267.637 63.238C267.637 63.238 267.254 72.7446 267.637 76.2219C268.019 79.6991 268.833 84.5162 267.988 85.4573C267.126 86.3984 260.557 86.6376 258.627 85.9837C258.627 85.9837 261.242 88.0253 267.047 87.4352C267.047 87.4352 259.536 89.0462 251.85 85.9837C251.93 86.7333 252.009 87.2438 252.057 87.4352C252.36 88.4401 260.541 92.332 270.316 89.2057C270.316 89.2057 269.247 76.6206 268.306 67.449V67.4331Z" fill="#4C6FA7"/>
<rect width="3.6411" height="7.82487" rx="1" transform="matrix(0.962725 0.270482 -0.314964 0.949104 257.598 65.1598)" fill="#CE4F37"/>
<path d="M253.821 70.9253C257.168 65.8069 255.987 70.5318 259.826 69.6966C262.475 70.5702 259.511 73.1974 259.15 73.6841C258.789 74.1708 257.171 75.3336 254.539 74.6513C251.825 73.9472 253.821 70.9253 253.821 70.9253Z" fill="#F0BB8F"/>
<path d="M254.609 74.8951C254.29 73.7945 253.842 72.3022 253.428 71.712C252.184 73.2433 250.869 74.2713 248.506 76.0431C245.553 77.4212 241.405 78.9944 240.225 78.6435C241.564 79.6165 243.159 79.457 243.781 79.1858C244.339 78.9465 249.884 78.0752 252.443 76.6337L254.609 74.8951Z" fill="#4C6FA7"/>
<path d="M288.15 18.9138C288.142 18.8668 288.134 18.8198 288.122 18.7729C288.086 18.6398 288.046 18.5067 287.999 18.3776C287.999 18.3698 287.991 18.358 287.987 18.3502C287.935 18.2132 287.876 18.0762 287.808 17.9432C287.725 17.7749 287.625 17.6144 287.518 17.4618L287.51 17.45C287.411 17.3091 287.3 17.1722 287.181 17.0469C287.165 17.0313 287.153 17.0156 287.141 17C287.034 16.8865 286.911 16.7808 286.787 16.679C286.76 16.6595 286.74 16.6321 286.712 16.6125C286.565 16.4951 286.406 16.3894 286.239 16.2955L276.758 10.8985C276.139 10.5462 275.448 10.3701 274.757 10.3701C274.066 10.3701 273.374 10.5462 272.755 10.8985L263.278 16.2916C263.111 16.3855 262.952 16.4951 262.805 16.6086C262.777 16.6282 262.754 16.6516 262.73 16.6751C262.607 16.7769 262.488 16.8825 262.376 16.996C262.36 17.0117 262.349 17.0274 262.337 17.043C262.217 17.1722 262.106 17.3052 262.007 17.4461L261.999 17.4579C261.892 17.6105 261.796 17.771 261.709 17.9393C261.435 18.4793 261.276 19.0781 261.276 19.7043V30.4906C261.276 31.1168 261.435 31.7155 261.709 32.2556C261.792 32.4239 261.892 32.5805 261.999 32.737L262.007 32.7488C262.106 32.8897 262.217 33.0266 262.337 33.1519C262.352 33.1675 262.364 33.1832 262.38 33.1989C262.488 33.3123 262.607 33.418 262.73 33.5198C262.758 33.5433 262.781 33.5667 262.805 33.5863C262.952 33.7037 263.111 33.8094 263.278 33.9033L265.077 34.9287L262.321 41.3707L271.186 38.4041L272.755 39.2964C272.91 39.3864 273.069 39.4608 273.231 39.5273C273.557 39.6604 273.895 39.7465 274.24 39.7896C274.582 39.8326 274.931 39.8326 275.273 39.7896C275.789 39.723 276.294 39.5586 276.758 39.2925L286.235 33.8994C286.402 33.8055 286.561 33.6959 286.708 33.5824C286.736 33.5628 286.76 33.5354 286.783 33.5159C286.907 33.4141 287.026 33.3084 287.133 33.1949C287.149 33.1793 287.161 33.1636 287.177 33.148C287.296 33.0188 287.407 32.8858 287.506 32.7449L287.514 32.7331C287.621 32.5805 287.717 32.42 287.804 32.2517C287.872 32.1187 287.931 31.9817 287.983 31.8408C287.983 31.833 287.987 31.8251 287.991 31.8173C288.039 31.6882 288.082 31.5551 288.114 31.4181C288.126 31.3751 288.134 31.3281 288.142 31.2811C288.166 31.1755 288.185 31.0737 288.201 30.968C288.221 30.8115 288.233 30.651 288.233 30.4866V19.7043C288.233 19.54 288.221 19.3795 288.201 19.223C288.189 19.1173 288.166 19.0155 288.142 18.9138H288.15Z" fill="#DBEFFE"/>
<path d="M268.015 20.9307L268.77 33.286H270.486V20.9307H268.015Z" fill="#EB958F"/>
<path d="M271.31 18.4595L272.075 33.2858H274.605V18.4595H271.31Z" fill="#35ABE7"/>
<path d="M275.429 25.0465L275.765 33.2834H277.621L277.9 25.0465H275.429Z" fill="#F4C252"/>
<path d="M278.723 21.7545L279.056 33.2861H280.907L281.194 21.7545H278.723Z" fill="#63CDF6"/>
<path d="M301.585 142.265C300.735 144.341 297.945 150.022 301.087 150.893C304.711 151.886 304.711 142.799 304.711 142.799L301.585 142.265Z" fill="#CE4F37"/>
<path d="M306.075 111.495C306.213 113.819 305.722 116.139 304.648 118.23C303.205 121.055 302.916 123.88 302.916 128.599C302.871 132.556 302.587 136.508 302.066 140.434C301.874 141.519 299.966 146.619 302.066 146.894C304.167 147.169 304.648 143.703 304.937 141.167C305.225 138.632 307.406 132.799 308.753 128.599C309.784 125.564 310.425 122.42 310.661 119.238C310.565 117.466 313.707 111.144 313.707 111.144L306.075 111.495Z" fill="#EBD1BB"/>
<path d="M319.336 142.571C319.336 142.571 317.155 152.33 321.965 151.536C325.172 150.971 322.526 142.571 322.526 142.571H319.336Z" fill="#CE4F37"/>
<path d="M318.871 112.044C319.202 113.109 319.364 114.216 319.352 115.327C318.657 117.45 318.274 119.655 318.213 121.878C318.406 124.597 319.095 132.568 319.368 135.623C319.664 137.797 319.664 139.999 319.368 142.174C319.063 143.991 319.64 147.993 321.164 147.993C322.687 147.993 322.992 144.816 322.414 142.174C322.042 139.842 322.135 137.464 322.687 135.165C322.992 133.439 324.787 122.443 324.9 120.977C325.092 118.519 324.066 116.518 324.242 115.251C324.419 113.983 325.653 109.967 325.653 109.967L318.871 112.044Z" fill="#EBD1BB"/>
<path d="M309.731 87.3187C307.702 91.7954 306.513 96.5767 306.22 101.445C305.835 107.355 299.806 138.173 299.806 138.173C299.806 138.173 320.619 139.532 326.343 137.058C326.343 137.058 326.616 106.637 326.616 101.934C326.616 99.1847 327.129 90.5563 324.627 86.8759L309.731 87.3187Z" fill="#EB958F"/>
<g opacity="0.5">
<g style="mix-blend-mode:multiply" opacity="0.5">
<path d="M306.218 101.444C306.512 96.5759 307.7 91.7946 309.73 87.3179L315.422 86.7834C314.348 89.8377 310.612 92.3117 310.243 98.3439C309.874 104.376 307.982 134.003 307.982 134.003C307.982 134.003 319.847 135.82 326.373 134.003C326.373 134.736 326.373 136.95 326.373 136.95C320.649 139.485 299.901 138.126 299.901 138.126C299.901 138.126 305.833 107.354 306.218 101.444Z" fill="#B8402D"/>
</g>
</g>
<path d="M310.566 70.0743C311.159 68.5472 310.453 66.287 310.421 64.317C310.421 61.8583 309.924 59.3843 310.421 57.8419C310.733 56.1823 311.647 54.6797 313.003 53.5964L313.484 54.2378C313.484 54.2378 314.125 54.36 313.756 54.6044C313.307 55.3982 313.008 56.2616 312.875 57.1547C313.317 57.0163 313.786 56.9713 314.248 57.0229C314.711 57.0745 315.156 57.2213 315.552 57.4533C315.949 57.6852 316.288 57.9967 316.546 58.366C316.804 58.7354 316.974 59.1538 317.045 59.5921C317.116 60.0304 317.085 60.4781 316.956 60.9041C316.827 61.3302 316.602 61.7243 316.296 62.0591C315.991 62.394 315.613 62.6615 315.188 62.843C314.763 63.0246 314.302 63.1159 313.837 63.1106C313.359 63.1054 312.889 63.0011 312.458 62.8051C312.458 62.9578 312.361 63.1411 312.281 63.2938C311.659 64.93 311.423 66.6769 311.592 68.4098C311.598 69.8684 311.182 71.3005 310.389 72.5483C310.233 72.9055 310.126 73.2801 310.069 73.6631C309.975 72.4471 310.145 71.2258 310.566 70.0743Z" fill="#F2A21D"/>
<path d="M310.021 73.6667C310.052 74.4973 310.225 75.3175 310.534 76.0949C310.063 75.3702 309.881 74.5085 310.021 73.6667Z" fill="#162329"/>
<path d="M316.93 74.691C316.93 74.3245 316.802 73.8511 316.754 73.2708C316.705 73.2483 316.665 73.2106 316.642 73.1639C316 72.0643 316.994 70.1859 317.139 69.7278C317.283 69.2696 317.139 69.0711 317.267 68.3381C317.395 67.6051 318.582 66.9942 318.341 65.971C318.101 64.9478 317.828 64.5966 318.341 63.665C318.854 62.7335 319.672 62.031 319.496 60.7176C319.408 59.6146 319.408 58.5068 319.496 57.4037L320.57 56.4722C320.486 56.298 320.39 56.1296 320.281 55.9682C319.977 55.5559 322.254 54.1967 322.254 54.1967L323.103 53.6927C323.103 53.6927 324.514 55.3421 324.082 59.1905C323.725 61.7184 323.014 64.1891 321.965 66.536C321.019 68.6282 319.175 70.7052 319.127 72.6446C319.07 73.8465 318.702 75.0164 318.056 76.0501C317.41 77.0839 316.505 77.9495 315.423 78.57C315.963 78.0722 316.379 77.4652 316.64 76.7938C316.901 76.1224 317 75.4038 316.93 74.691Z" fill="#F2A21D"/>
<path d="M324.307 65.6028C320.427 65.5417 316.557 65.4501 312.698 65.3279V62.3653C313.219 62.2694 313.722 62.0995 314.189 61.8613C315.216 61.3115 315.055 58.4863 315.055 58.4863H319.481C319.481 58.4863 319.304 61.3115 320.331 61.8613C321.5 62.3028 322.714 62.6253 323.954 62.8234C324.9 63.0983 324.083 63.8466 324.307 65.6028Z" fill="#F0BB8F"/>
<path d="M324.29 65.5242C322.398 65.8754 318.646 69.3115 316.594 69.2962C314.541 69.2809 313.868 65.8143 311.623 65.6311V62.5768C312.513 62.4602 313.378 62.2129 314.188 61.8437C315.215 61.294 315.054 58.4688 315.054 58.4688H319.48C319.48 58.4688 319.303 61.294 320.33 61.8437C321.498 62.2852 322.713 62.6077 323.953 62.8058C324.883 63.0807 324.114 63.829 324.29 65.5242Z" fill="#EBD1BB"/>
<path d="M311.654 52.5933C311.4 51.4299 311.4 50.229 311.654 49.0656C311.965 47.9841 312.666 47.0413 313.633 46.402C314.6 45.7627 315.773 45.4676 316.945 45.5684C320.184 45.7211 311.654 52.5933 311.654 52.5933Z" fill="#F2A21D"/>
<path d="M312.056 53.4918C311.986 53.5699 311.933 53.6604 311.901 53.758C311.868 53.8556 311.855 53.9584 311.864 54.0606C311.873 54.1627 311.903 54.2622 311.953 54.3533C312.002 54.4444 312.07 54.5253 312.152 54.5913L312.842 55.1564C312.919 55.2248 313.01 55.2773 313.11 55.3107C313.209 55.3441 313.315 55.3576 313.42 55.3505C313.525 55.3433 313.628 55.3156 313.722 55.2691C313.815 55.2226 313.898 55.1582 313.964 55.08C314.113 54.9322 314.196 54.7352 314.196 54.5303C314.196 54.3253 314.113 54.1284 313.964 53.9805L313.274 53.4002C313.108 53.2745 312.898 53.2141 312.686 53.2311C312.475 53.2481 312.278 53.3414 312.136 53.4918H312.056Z" fill="#FFD765"/>
<path d="M312.552 49.6287C313.514 47.2616 315.358 45.0473 318.966 45.7345C320.403 46.0581 321.666 46.8729 322.514 48.0242C323.362 49.1755 323.737 50.5833 323.568 51.9805C323.373 53.2231 322.961 54.4259 322.349 55.5388C322.109 55.9206 320.137 56.623 319.527 57.7989C318.918 58.9748 312.552 49.6287 312.552 49.6287Z" fill="#F2A21D"/>
<path d="M320.28 55.9638C319.89 56.8312 320.03 60.2391 319.856 61.1679C319.535 61.2748 319.546 60.7403 318.3 60.1311C317.341 59.6619 317.175 59.5482 316.463 59.5219C315.751 59.4956 315.053 59.3293 314.412 59.0333C314.412 59.0333 314.412 59.3693 314.829 58.9112L320.264 55.9332L320.28 55.9638Z" fill="#DDC0A7"/>
<path d="M320.49 55.86C320.116 56.848 319.397 57.6837 318.453 58.2271C317.202 58.9845 315.808 59.5032 314.349 59.7543C313.723 59.6626 313.226 59.7543 312.537 58.1049C311.771 56.8958 311.392 55.4999 311.446 54.0886C311.639 52.5614 311.446 49.3086 313.707 48.4381C314.616 48.1566 315.594 48.1572 316.502 48.4399C317.41 48.7227 318.2 49.2729 318.758 50.0111C319.656 51.1478 320.063 52.5683 319.897 53.9817C319.897 53.9817 321.195 52.7599 321.628 52.7752C322.061 52.7905 322.366 53.0959 321.997 53.9053C321.628 54.7147 321.42 54.5467 321.324 54.9743C321.227 55.4019 321.115 55.8142 320.859 55.9364C320.602 56.0586 320.49 55.86 320.49 55.86Z" fill="#EBD1BB"/>
<path d="M305.545 69.3583C306.187 66.6247 306.363 62.9443 308.544 62.8374C310.452 62.6748 312.341 62.3477 314.188 61.86C314.188 61.86 315.791 65.968 317.138 66.1055C318.485 66.2429 321.243 62.2265 321.243 62.2265C321.243 62.2265 326.534 63.494 327.657 65.2044C328.523 66.4262 325.316 64.2576 325.957 66.9912C326.338 69.8459 326.268 72.7389 325.749 75.5738C324.787 81.1173 326.294 91.4408 326.294 91.4408H307.983C307.983 91.4408 310.532 79.5596 309.137 73.6648C308.143 69.007 305.257 70.5647 305.545 69.3583Z" fill="#FFD765"/>
<path d="M305.545 69.3583C306.187 66.6247 306.363 62.9443 308.544 62.8374C310.452 62.6748 312.341 62.3477 314.188 61.86C314.188 61.86 315.791 65.968 317.138 66.1055C318.485 66.2429 321.243 62.2265 321.243 62.2265C321.243 62.2265 326.534 63.494 327.657 65.2044C328.523 66.4262 325.316 64.2576 325.957 66.9912C326.338 69.8459 326.268 72.7389 325.749 75.5738C324.787 81.1173 326.294 91.4408 326.294 91.4408H307.983C307.983 91.4408 310.532 79.5596 309.137 73.6648C308.143 69.007 305.257 70.5647 305.545 69.3583Z" fill="#CE4F37"/>
<path d="M321.244 62.2281C321.244 62.2281 323.537 62.6252 324.354 62.6863C325.208 62.7574 326.055 62.8901 326.888 63.0834C329.726 63.9233 329.309 66.382 330.672 72.1241C331.249 74.598 333.189 78.5686 333.285 79.5765C333.382 80.5844 328.571 81.4396 328.571 81.4396L325.012 72.7349C324.609 71.8538 324.277 70.9451 324.018 70.0166C322.943 66.4583 321.244 62.2281 321.244 62.2281Z" fill="#CE4F37"/>
<path d="M333.622 75.8006C333.565 74.7121 333.892 73.6367 334.552 72.7463C335.643 70.7763 335.835 70.1654 335.819 69.6004C336.014 68.762 336.321 67.951 336.733 67.1875C336.925 66.8057 337.727 65.5535 337.551 65.4007C337.374 65.248 337.038 65.1106 336.557 65.8589C336.3 66.3446 335.971 66.7922 335.579 67.1875C335.065 67.7067 334.905 68.226 334.745 68.2565C334.584 68.287 332.997 67.5693 332.612 67.6915C332.084 68.016 331.637 68.4466 331.302 68.9531C330.966 69.4596 330.752 70.0297 330.672 70.6236C330.751 71.4312 330.751 72.2441 330.672 73.0517C330.57 73.9796 330.393 74.8986 330.143 75.8006H333.622Z" fill="#EBD1BB"/>
<path d="M334.792 72.2897C335.544 71.5166 336.471 70.9161 337.502 70.5335C338.095 70.4572 338.143 69.9837 337.727 69.8616C336.878 69.8262 336.039 70.0394 335.321 70.4724C334.792 70.8542 334.792 72.2897 334.792 72.2897Z" fill="#EBD1BB"/>
<path d="M333.815 74.4447C333.815 74.4447 334.424 83.6075 329.982 82.7218C325.541 81.836 330.624 73.7574 330.624 73.7574C331.042 74.1342 331.559 74.3968 332.12 74.5177C332.682 74.6386 333.267 74.6134 333.815 74.4447Z" fill="#B8402D"/>
<path d="M326.374 91.4396C320.392 93.2561 313.965 93.2561 307.982 91.4396L318.02 87.8661L326.374 91.4396Z" fill="#CE4F37"/>
<path d="M310.564 70.0748C310.121 73.3606 309.254 76.5818 307.983 79.6652C307.534 80.551 302.483 83.6053 302.483 83.6053L299.741 81.0397C301.126 79.9642 302.414 78.779 303.589 77.4967C304.038 76.7026 305.433 69.4181 305.994 67.4481C306.556 65.4781 310.564 70.0748 310.564 70.0748Z" fill="#CE4F37"/>
<path d="M326.262 90.5279C326.262 91.1082 326.374 91.4442 326.374 91.4442C320.392 93.2607 313.965 93.2607 307.982 91.4442C307.982 91.4442 310.083 81.6247 309.458 75.4092C309.361 75.7604 309.265 76.0811 309.153 76.4018L309.41 74.8747L310.243 68.9493C310.243 68.9493 311.366 77.6541 311.414 83.5794C311.462 89.2757 318.148 91.9023 326.262 90.5279Z" fill="#B8402D"/>
<rect width="3.71474" height="7.98312" rx="1" transform="matrix(0.743868 -0.668326 0.633007 0.774146 295.429 80.2283)" fill="#12AAE1"/>
<rect width="3.0142" height="6.47763" rx="1" transform="matrix(0.743868 -0.668326 0.633007 0.774146 296.342 80.4647)" fill="#D1F0FA"/>
<path d="M296.874 82.3027C296.874 81.7071 296.97 81.4475 298.477 81.417C300.498 81.417 300.802 81.7682 300.45 82.2264C300.45 82.2264 301.941 82.318 301.732 82.99C301.732 82.99 302.47 83.5092 301.732 83.9826C301.732 83.9826 301.732 84.2422 301.347 84.456C300.438 84.8264 299.465 85.0335 298.477 85.0669C298.109 84.9447 298.06 84.5018 297.9 84.4866C297.74 84.4713 297.243 84.3186 297.211 84.0895C297.179 83.8604 297.211 83.6313 297.066 83.5244C296.922 83.4175 296.617 83.2648 296.874 82.3027Z" fill="#EBD1BB"/>
<path d="M289.334 32.5537C289.34 32.5172 289.346 32.4808 289.355 32.4443C289.383 32.341 289.414 32.2377 289.45 32.1375C289.45 32.1314 289.456 32.1223 289.46 32.1162C289.499 32.0099 289.545 31.9036 289.597 31.8003C289.662 31.6697 289.738 31.5452 289.821 31.4267L289.827 31.4176C289.903 31.3082 289.989 31.2019 290.081 31.1047C290.093 31.0926 290.103 31.0804 290.112 31.0682C290.194 30.9802 290.289 30.8981 290.384 30.8192C290.406 30.804 290.421 30.7827 290.442 30.7675C290.556 30.6764 290.678 30.5944 290.807 30.5215L298.115 26.3326C298.593 26.0592 299.125 25.9225 299.658 25.9225C300.191 25.9225 300.724 26.0592 301.201 26.3326L308.507 30.5184C308.635 30.5913 308.758 30.6764 308.871 30.7645C308.892 30.7797 308.911 30.7979 308.929 30.8161C309.024 30.8951 309.116 30.9771 309.202 31.0652C309.214 31.0774 309.223 31.0895 309.232 31.1017C309.324 31.2019 309.41 31.3052 309.486 31.4145L309.493 31.4237C309.575 31.5421 309.649 31.6667 309.716 31.7973C309.927 32.2165 310.05 32.6812 310.05 33.1673V41.539C310.05 42.025 309.927 42.4898 309.716 42.909C309.652 43.0396 309.575 43.1611 309.493 43.2826L309.486 43.2917C309.41 43.4011 309.324 43.5074 309.232 43.6046C309.22 43.6167 309.211 43.6289 309.199 43.641C309.116 43.7291 309.024 43.8112 308.929 43.8901C308.908 43.9084 308.889 43.9266 308.871 43.9418C308.758 44.0329 308.635 44.1149 308.507 44.1878L307.12 44.9837L309.245 49.9836L302.411 47.6811L301.201 48.3737C301.082 48.4436 300.959 48.5013 300.834 48.5529C300.583 48.6562 300.323 48.723 300.056 48.7564C299.793 48.7898 299.524 48.7898 299.26 48.7564C298.862 48.7048 298.473 48.5772 298.115 48.3707L290.81 44.1848C290.681 44.1119 290.559 44.0268 290.445 43.9387C290.424 43.9235 290.406 43.9023 290.387 43.8871C290.292 43.8081 290.2 43.7261 290.118 43.638C290.106 43.6259 290.096 43.6137 290.084 43.6016C289.992 43.5013 289.907 43.398 289.83 43.2887L289.824 43.2796C289.741 43.1611 289.668 43.0366 289.6 42.9059C289.548 42.8027 289.502 42.6963 289.463 42.587C289.463 42.5809 289.46 42.5748 289.456 42.5688C289.42 42.4685 289.386 42.3652 289.362 42.2589C289.352 42.2255 289.346 42.1891 289.34 42.1526C289.322 42.0706 289.306 41.9916 289.294 41.9096C289.279 41.7881 289.27 41.6635 289.27 41.536V33.1673C289.27 33.0397 289.279 32.9151 289.294 32.7936C289.303 32.7116 289.322 32.6326 289.34 32.5537H289.334Z" fill="#DBEFFE"/>
<path d="M305.675 32.4821L303.789 34.0172L301.783 36.0504L300.566 34.372L298.286 38.2588L296.893 36.4052L294.554 39.8531L292.55 38.6204V42.3253H305.675V32.4821Z" fill="#EB958F"/>
<path d="M305.674 36.7001L303.586 38.2795L301.783 38.7386L300.565 37.7799L298.286 40.0013L296.893 38.9406L294.554 40.9112L292.55 40.2075V42.3248H305.674V36.7001Z" fill="#63CDF6"/>
<ellipse cx="46.6564" cy="5.18404" rx="46.6564" ry="5.18404" transform="matrix(-1 0 0 1 93.3127 144.125)" fill="#DBEFFE"/>
<path d="M85.3317 149.825C89.2607 149.335 88.6526 147.538 87.9978 146.855C86.8667 145.657 85.9644 144.28 85.3317 142.786C85.0511 141.658 77.9571 142.133 77.9571 142.133C77.7952 143.117 77.7952 144.119 77.9571 145.103C78.3001 145.474 79.1108 145.415 79.2512 145.875C79.3915 146.335 81.4807 150.3 85.3317 149.825Z" fill="#526D9C"/>
<path d="M64.7199 141.628C62.5684 143.113 60.0426 145.563 58.4835 146.082C56.9244 146.602 56.3787 147.33 56.9244 148.547C57.4701 149.765 60.6039 150.032 62.3345 149.81C64.0651 149.587 65.5931 148.013 66.4817 147.493C67.3704 146.973 68.7892 147.968 69.7403 147.077C70.6914 146.186 70.5198 145.028 70.629 143.929C70.7381 142.83 64.7199 141.628 64.7199 141.628Z" fill="#526D9C"/>
<path d="M78.3621 104.179C78.3621 104.179 71.2681 143.976 71.1122 144.599C70.9563 145.223 63.8624 143.114 63.0984 142.119C63.0984 142.119 66.3258 116.222 66.6376 114.514C66.9494 112.807 68.337 93.5766 69.7558 88.2308C69.7558 88.2308 84.7077 89.7158 88.4652 89.3742C88.4652 89.3742 88.6211 105.709 87.3894 113.594C86.1577 121.479 85.9862 142.119 85.8303 142.743C85.6744 143.367 78.1127 143.664 77.6449 142.892C77.1772 142.119 78.3621 104.179 78.3621 104.179Z" fill="#547DBF"/>
<path d="M88.3557 100.096L83.4757 100.705C83.3821 101.165 82.5558 138.586 82.3843 143.338C84.1149 143.249 85.6584 143.041 85.7364 142.759C85.8767 142.135 86.0326 121.479 87.2955 113.609C87.5138 112.035 88.2154 102.145 88.3557 100.096Z" fill="#4C6FA7"/>
<path d="M74.9004 100.54L66.4656 143.693C68.6172 144.405 70.987 144.955 71.1429 144.613C71.2988 144.272 76.3815 115.894 78.3616 104.178L78.7046 100.704L74.9004 100.54Z" fill="#4C6FA7"/>
<path d="M76.6471 62.1281C73.7894 62.3696 70.9577 62.8365 68.1811 63.5239C67.3392 63.9842 63.6597 73.6661 63.5038 74.26C63.3478 74.854 64.6419 74.7946 67.573 75.2252C68.2538 78.3544 68.5364 81.5502 68.415 84.7437C67.994 88.5303 65.8268 99.5931 65.8268 99.5931C65.8268 99.5931 80.0615 101.939 89.463 99.9198C89.463 99.9198 90.6012 82.6797 90.7727 81.3581C90.9442 80.0365 91.6146 74.9431 91.6146 74.9431C91.6146 74.9431 93.1737 77.126 94.1871 76.428C94.1871 76.428 91.9576 65.6325 91.3028 64.7712C90.6479 63.91 83.0395 60.9104 83.0395 60.9104L76.6471 62.1281Z" fill="#63CDF6"/>
<g opacity="0.5">
<path opacity="0.5" d="M92.9714 74.8365C91.9031 74.1212 91.0617 73.14 90.5392 72.0002C87.343 70.2183 86.3451 71.2726 86.3451 71.2726C86.4855 72.0002 87.0312 72.7575 86.4855 77.7766C85.6279 85.7953 83.2269 94.111 81.5898 100.704C84.2092 100.673 86.8195 100.404 89.3854 99.9023C89.3854 99.9023 89.4946 97.9125 89.6505 95.1505C89.6505 94.5862 89.6505 94.0071 89.744 93.3982C89.744 92.4924 89.8531 91.5272 89.9155 90.562C89.9779 89.5968 90.0247 88.587 90.087 87.5921C90.087 87.2654 90.087 86.9536 90.087 86.6269C90.1429 84.8501 90.3253 83.079 90.6327 81.3257C90.8198 79.9892 91.4746 74.9107 91.4746 74.9107C91.6355 74.9222 91.7971 74.9222 91.958 74.9107H92.3945C92.8155 74.9107 92.7219 74.7325 92.223 74.4801C91.1472 73.9752 92.909 74.8662 92.9714 74.8365Z" fill="#007BA8"/>
</g>
<path d="M75.4933 63.6673L74.7137 61.3954L73.4041 62.4645L75.4933 63.6673Z" fill="#D5F8FF"/>
<g opacity="0.5">
<path opacity="0.5" d="M74.8842 76.4962L70.0354 100.122L68.2268 99.9138L74.8842 76.4962Z" fill="#007BA8"/>
</g>
<path d="M83.9428 60.4896C83.9428 60.4896 90.8653 63.2516 91.2239 64.7217C91.5504 68.5847 91.4825 72.4687 91.0212 76.3191C90.5379 80.67 89.4621 72.978 86.3438 72.9631C83.2256 72.9483 75.1338 77.8931 75.1338 77.8931L69.1936 73.5868L64.3285 79.675L60.3066 77.8931C60.3066 77.8931 65.2334 65.2414 65.748 64.2762C66.2625 63.311 68.414 62.4943 72.5145 62.5537C74.2027 62.4876 75.8931 62.6122 77.5504 62.9249L83.9428 60.4896Z" fill="#63CDF6"/>
<path d="M72.4998 62.5537L75.1191 77.8931L83.9592 60.4896L76.99 64.1426L72.4998 62.5537Z" fill="#F8F3E0"/>
<path d="M76.9744 64.0849L74.9008 66.4162L72.4998 62.5999L73.8874 61.2783C73.8874 61.2783 76.5379 62.9118 76.9744 64.0849Z" fill="#F8F3E0"/>
<path d="M75.1191 62.1249C75.8101 62.7125 76.4321 63.3697 76.9745 64.085C76.9745 64.085 80.5137 61.9912 81.2621 59.7044L80.2019 56.6603L75.1191 62.1249Z" fill="#F0BB8F"/>
<path d="M76.99 64.1428L78.44 67.083L83.9592 60.4898L81.5114 59.4207L76.99 64.1428Z" fill="#F8F3E0"/>
<g style="mix-blend-mode:multiply">
<g style="mix-blend-mode:multiply">
<path d="M76.9754 64.0829L74.9018 66.4143L72.5007 62.598L73.8883 61.2764C73.8883 61.2764 76.5388 62.9098 76.9754 64.0829Z" fill="#F8EBE0"/>
</g>
</g>
<g style="mix-blend-mode:multiply">
<g style="mix-blend-mode:multiply">
<path d="M76.9893 64.1469L78.4392 67.0871L83.9585 60.494L81.5107 59.4248L76.9893 64.1469Z" fill="#F8EBE0"/>
</g>
</g>
<path d="M80.17 56.1842L73.1228 61.2479C73.1228 61.2479 74.8222 61.6785 75.1185 62.124C76.6418 61.4511 78.0379 60.5429 79.2501 59.4362C79.7383 58.8474 80.1083 58.1779 80.3415 57.4613L80.17 56.1842Z" fill="#F0BB8F"/>
<g style="mix-blend-mode:multiply" opacity="0.3">
<g style="mix-blend-mode:multiply" opacity="0.3">
<path d="M80.1705 56.1877L73.1233 61.2514C73.1233 61.2514 74.8227 61.682 75.119 62.1275C76.6423 61.4546 78.0384 60.5465 79.2506 59.4398C79.7388 58.8509 80.1087 58.1814 80.342 57.4648L80.1705 56.1877Z" fill="#F0BB8F"/>
</g>
</g>
<path d="M70.9719 50.0509C70.7619 51.0308 70.7619 52.041 70.9719 53.0208C71.0499 53.7187 70.473 56.154 71.0655 57.3272C71.658 58.5003 72.6246 61.6038 74.0434 61.5592C75.4622 61.5147 78.4557 59.4061 79.0326 59.0497C79.4632 58.6891 79.8093 58.2463 80.0483 57.75C80.2874 57.2536 80.4141 56.7149 80.4202 56.1689C80.6191 56.0093 80.7879 55.8185 80.9191 55.6046C81.2796 55.0091 81.5376 54.3624 81.6831 53.689C81.6831 53.1842 81.6831 52.605 80.9971 52.8426C80.5313 53.1141 80.1913 53.5441 80.046 54.0454C80.046 54.0454 78.7987 50.7786 76.6627 50.1994C74.5267 49.6203 71.3773 49.056 70.9719 50.0509Z" fill="#F0BB8F"/>
<path d="M70.7372 51.1805C70.3843 50.8296 70.1497 50.3861 70.0636 49.9071C69.9774 49.4282 70.0437 48.9356 70.2539 48.4928C70.7517 47.6866 71.4532 47.0116 72.2946 46.5293C73.1359 46.0469 74.0905 45.7724 75.0716 45.7308C77.6441 45.5081 80.9494 47.3197 81.5419 49.1462C81.9288 50.3713 81.8684 51.6852 81.3704 52.8734C81.3704 52.8734 80.3726 52.5021 79.8113 54.7592L79.3747 54.9077C79.3747 54.9077 78.1742 50.9875 74.9468 50.4529C71.7195 49.9183 70.9555 50.5123 70.7372 51.1805Z" fill="#C0560D"/>
<path d="M70.7373 51.1804C70.1121 50.7539 69.6314 50.1626 69.3544 49.4792C69.0774 48.7959 69.0161 48.0504 69.1782 47.3344C69.1782 47.3344 70.5658 47.7501 72.5303 46.2652C74.4948 44.7803 78.1899 46.3543 78.1899 46.3543L77.4727 50.0815C77.4727 50.0815 71.9378 48.953 71.4233 49.5915C71.0647 50.0614 70.8295 50.6062 70.7373 51.1804Z" fill="#C0560D"/>
<path d="M56.2618 64.3022C56.1276 63.8297 55.8488 63.406 55.4609 63.0849C55.073 62.7639 54.5935 62.5601 54.0835 62.4996C52.4975 62.1581 51.9665 61.9181 51.7021 61.9085C51.4377 61.8988 51.0193 61.0535 50.8027 60.6778C50.5861 60.3022 50.8542 59.9442 50.8356 59.8594C50.8169 59.7747 51.4544 59.0098 51.2107 58.7593C50.967 58.5087 50.4138 59.098 50.1524 59.2881C49.891 59.4783 49.6163 60.5506 49.621 60.7083C49.7769 61.1414 49.9664 61.5628 50.1882 61.9689C49.9171 61.5781 49.5807 61.2322 49.1923 60.9449C49.3292 60.5405 49.4307 60.1259 49.4958 59.7055C49.4958 59.7055 49.8845 58.816 49.6662 58.4823C49.448 58.1486 49.1659 58.5797 48.9083 58.9486C48.6508 59.3175 48.3874 59.8333 48.3874 59.8333C48.4717 59.4082 48.4928 58.9739 48.4502 58.5431C48.351 58.2663 47.7191 57.7915 47.6976 58.0534C47.676 58.3153 47.4188 59.777 47.4014 59.934C47.4442 60.1694 47.5283 60.3963 47.6503 60.605C47.7457 60.7031 47.5822 60.9283 47.5322 61.0736C47.4822 61.2189 47.7073 61.3847 48.3586 61.9233C48.8784 62.5965 49.3333 63.3129 49.718 64.0639C49.7815 64.1292 51.7434 64.7261 52.3846 64.9701C52.9015 65.1287 53.3472 65.4484 53.65 65.8778C53.7394 66.1228 54.3206 67.3103 54.5258 67.696L54.6741 67.8486L57.2669 66.4719C56.8424 65.7894 56.5049 65.061 56.2618 64.3022Z" fill="#F0BB8F"/>
<path d="M52.6854 65.3517C53.7276 67.1125 55.455 71.3738 55.7358 71.9599C57.4131 75.8354 60.8861 81.7928 63.5492 80.4194C67.5477 78.3432 64.2603 74.1094 63.4884 72.83C62.7164 71.5507 55.9419 63.3858 55.7268 63.1207L52.6854 65.3517Z" fill="#63CDF6"/>
<rect width="3.95559" height="7.64402" rx="1" transform="matrix(0.475441 -0.879748 0.890092 0.45578 81.6003 100.158)" fill="#CE4F37"/>
<path d="M89.4618 80.1086C88.9622 82.1439 88.7008 84.2256 88.6823 86.3157C88.5263 90.622 88.3548 93.0573 86.8113 94.6017C85.2678 96.146 86.1641 95.0453 85.2286 96.8272C84.7885 97.7074 85.3257 97.4253 85.6687 97.7074C86.0118 97.9896 86.256 98.4774 86.5366 97.8389C86.8173 97.2004 86.5619 97.7349 86.5619 97.7349C86.5619 97.7349 86.0006 100.037 85.9538 100.497C85.907 100.957 84.2855 102.13 84.2232 102.769C84.1608 103.407 85.7823 103.006 86.5619 102.947C87.7834 102.729 88.914 102.183 89.8204 101.373C90.2134 100.056 90.387 98.6877 90.3349 97.3191C90.5069 95.5832 90.8091 93.8612 91.2392 92.1664C91.4575 91.2754 92.7983 86.2266 93.2505 83.5388C93.7026 80.8511 93.9209 78.8019 93.9209 78.8019L89.4618 80.1086Z" fill="#F0BB8F"/>
<path d="M86.002 93.9892C87.6627 95.2234 89.6081 96.0633 91.6772 96.4394C91.6772 96.4394 94.5771 85.0795 94.9825 82.9115C95.3879 80.7435 92.0514 67.1563 91.646 65.8792C91.2406 64.6022 89.4476 63.4439 87.2493 62.5084L85.6902 70.6905C85.6902 70.6905 88.2004 80.3574 88.3095 82.0206C88.4186 83.6837 86.002 93.9892 86.002 93.9892Z" fill="#63CDF6"/>
<path d="M46.7238 38.0536C46.7302 38.0154 46.7367 37.9772 46.7463 37.939C46.7752 37.8308 46.8072 37.7226 46.8457 37.6176C46.8457 37.6112 46.8521 37.6017 46.8554 37.5953C46.8971 37.4839 46.9452 37.3725 46.9997 37.2643C47.0671 37.1274 47.1473 36.9969 47.2339 36.8728L47.2403 36.8632C47.3205 36.7487 47.4103 36.6373 47.5066 36.5354C47.5194 36.5227 47.529 36.51 47.5387 36.4972C47.6253 36.4049 47.7247 36.319 47.8242 36.2362C47.8466 36.2203 47.8627 36.198 47.8851 36.1821C48.0038 36.0866 48.1322 36.0007 48.2669 35.9243L55.9245 31.5353C56.4249 31.2488 56.9831 31.1056 57.5413 31.1056C58.0995 31.1056 58.6577 31.2488 59.1582 31.5353L66.8126 35.9211C66.9473 35.9975 67.0756 36.0866 67.1943 36.1789C67.2168 36.1949 67.2361 36.214 67.2553 36.2331C67.3547 36.3158 67.451 36.4017 67.5408 36.494C67.5536 36.5068 67.5633 36.5195 67.5729 36.5322C67.6691 36.6373 67.759 36.7455 67.8392 36.8601L67.8456 36.8696C67.9322 36.9937 68.0092 37.1242 68.0798 37.2611C68.3011 37.7003 68.4294 38.1873 68.4294 38.6965V47.4683C68.4294 47.9775 68.3011 48.4645 68.0798 48.9037C68.0124 49.0406 67.9322 49.1679 67.8456 49.2952L67.8392 49.3047C67.759 49.4193 67.6691 49.5307 67.5729 49.6326C67.5601 49.6453 67.5504 49.658 67.5376 49.6708C67.451 49.7631 67.3547 49.849 67.2553 49.9318C67.2328 49.9508 67.2136 49.9699 67.1943 49.9859C67.0756 50.0813 66.9473 50.1673 66.8126 50.2437L65.3593 51.0776L67.5857 56.3164L60.4254 53.9039L59.1582 54.6295C59.0331 54.7027 58.9048 54.7632 58.7732 54.8173C58.5102 54.9255 58.2375 54.9956 57.9584 55.0306C57.6825 55.0656 57.4002 55.0656 57.1243 55.0306C56.7073 54.9765 56.2998 54.8428 55.9245 54.6264L48.2701 50.2405C48.1354 50.1641 48.007 50.075 47.8883 49.9827C47.8659 49.9668 47.8466 49.9445 47.8274 49.9286C47.7279 49.8458 47.6317 49.7599 47.5451 49.6676C47.5323 49.6549 47.5226 49.6421 47.5098 49.6294C47.4136 49.5244 47.3237 49.4161 47.2435 49.3016L47.2371 49.292C47.1505 49.1679 47.0735 49.0374 47.0029 48.9005C46.9484 48.7923 46.9003 48.6809 46.8586 48.5663C46.8586 48.56 46.8554 48.5536 46.8521 48.5472C46.8137 48.4422 46.7784 48.334 46.7527 48.2226C46.7431 48.1876 46.7367 48.1494 46.7302 48.1112C46.711 48.0253 46.695 47.9425 46.6821 47.8566C46.6661 47.7293 46.6565 47.5988 46.6565 47.4651V38.6965C46.6565 38.5629 46.6661 38.4324 46.6821 38.305C46.6917 38.2191 46.711 38.1364 46.7302 38.0536H46.7238Z" fill="#DBEFFE"/>
<path d="M63.8454 37.9825L61.8696 39.5911L59.7682 41.7214L58.4922 39.9628L56.1037 44.0353L54.644 42.0932L52.1936 45.7058L50.094 44.4142V48.2961H63.8454V37.9825Z" fill="#EB958F"/>
<path d="M63.8454 42.4052L61.6576 44.06L59.7682 44.5411L58.4922 43.5366L56.1037 45.8641L54.644 44.7527L52.1936 46.8174L50.094 46.0802V48.2986H63.8454V42.4052Z" fill="#63CDF6"/>
<path d="M9.77515 59.6366C7.71712 60.8543 6.00209 59.2357 6.08005 56.8152C6.158 54.3948 8.94882 53.8454 9.30741 54.7066C9.59631 56.3361 9.75268 57.9843 9.77515 59.6366Z" fill="#694329"/>
<path d="M9.52515 58.2078C9.52515 58.2078 9.52515 56.1586 9.40042 55.0597C9.37865 54.9389 9.34737 54.8197 9.30687 54.7033C9.01064 54.0203 7.17089 54.2282 6.42251 55.5943C6.33071 55.7869 6.27277 55.9926 6.25101 56.2031C6.15886 56.5977 6.19601 57.0096 6.35746 57.3834C6.5189 57.7572 6.79687 58.0748 7.15382 58.2933C7.51078 58.5119 7.92955 58.6209 8.3536 58.6056C8.77765 58.5903 9.18656 58.4514 9.52515 58.2078Z" fill="#7A553C"/>
<path d="M28.4074 142.242C29.187 144.143 31.7595 149.384 28.8596 150.186C25.5075 151.107 25.5075 142.762 25.5075 142.762L28.4074 142.242Z" fill="#00ABE1"/>
<path d="M24.2444 113.878C24.1284 116.024 24.5956 118.162 25.6009 120.085C26.9261 122.699 27.16 125.297 27.16 129.663C27.2062 133.308 27.4717 136.947 27.9551 140.562C28.1266 141.572 29.8884 146.28 27.9551 146.502C26.0218 146.725 25.5697 143.532 25.3046 141.216C25.0396 138.899 23.0283 133.494 21.781 129.633C20.8359 126.824 20.2444 123.918 20.0192 120.976C20.1128 119.358 17.1972 113.551 17.1972 113.551L24.2444 113.878Z" fill="#F0BB8F"/>
<path d="M12.692 142.554C12.692 142.554 14.6876 151.553 10.3065 150.811C7.29743 150.291 9.8076 142.554 9.8076 142.554H12.692Z" fill="#00ABE1"/>
<path d="M13.1277 112.379C12.7997 114.034 12.6431 115.715 12.66 117.398C13.3025 119.357 13.6592 121.391 13.7202 123.442C13.5487 125.967 12.8939 133.272 12.6444 136.198C12.3728 138.204 12.3728 140.235 12.6444 142.242C12.9251 143.92 12.395 147.617 10.9918 147.617C9.58856 147.617 9.30792 144.647 9.83802 142.242C10.1806 140.092 10.096 137.901 9.58856 135.782C9.30792 134.193 7.65526 124.036 7.54612 122.7C7.37462 120.428 8.31009 118.586 8.15418 117.398C7.99827 116.21 7.26548 111.013 7.26548 111.013L13.1277 112.379Z" fill="#F0BB8F"/>
<path d="M21.5466 92.2711C21.8429 93.0284 23.9788 95.7459 24.5713 104.953C24.9299 110.417 25.3665 115.555 25.3665 115.555C25.3665 115.555 11.9737 116.966 6.65709 114.605C6.65709 114.605 5.9399 108.813 5.9399 104.462C5.9399 95.2262 5.47216 95.1668 7.77965 91.7662L21.5466 92.2711Z" fill="#CE4F37"/>
<path d="M8.10822 69.3149C11.6838 69.2555 15.2542 69.1664 18.8193 69.0476V66.3302C18.3389 66.2309 17.873 66.0763 17.4317 65.8698C16.4963 65.3501 16.6366 62.7515 16.6366 62.7515H12.5673C12.5673 62.7515 12.7232 65.3501 11.7721 65.8698C10.6954 66.2727 9.57703 66.5664 8.43564 66.746C7.56253 66.9984 8.3109 67.6963 8.10822 69.3149Z" fill="#F0BB8F"/>
<path d="M8.12278 69.2447C9.86898 69.5565 13.3302 72.7343 15.2167 72.7343C17.1033 72.7343 17.7269 69.4823 19.8005 69.3486V66.5866C19.1061 66.4631 18.444 66.2108 17.8516 65.8442C16.9006 65.3244 17.4307 62.8743 17.4307 62.8743H12.5507C12.5507 62.8743 12.3324 65.6363 11.3813 66.156C10.4283 66.5083 9.43338 66.7477 8.41901 66.8688C7.57708 67.0024 8.29428 67.6855 8.12278 69.2447Z" fill="#F0BB8F"/>
<path opacity="0.5" d="M12.3795 65.0244C14.0177 64.7932 15.6007 64.2906 17.0569 63.5394V63.3167V63.2424H14.6403H12.5978C12.592 63.8421 12.5188 64.4395 12.3795 65.0244Z" fill="#F0BB8F"/>
<path d="M19.7712 57.3022C20.0053 56.2346 20.0053 55.1325 19.7712 54.065C19.4781 53.0701 18.8311 52.2032 17.9409 51.6126C17.0506 51.0221 15.9725 50.7446 14.8911 50.8278C11.9132 50.9763 19.7712 57.3022 19.7712 57.3022Z" fill="#7A553C"/>
<path d="M19.3641 58.1491C19.4281 58.221 19.4764 58.3043 19.5064 58.3942C19.5364 58.484 19.5473 58.5787 19.5386 58.6726C19.5299 58.7665 19.5017 58.8578 19.4557 58.9413C19.4097 59.0248 19.3467 59.0987 19.2705 59.1589L18.6313 59.6786C18.558 59.74 18.4727 59.7868 18.3802 59.8164C18.2876 59.846 18.1899 59.8576 18.0926 59.8507C17.9953 59.8438 17.9004 59.8184 17.8135 59.7761C17.7267 59.7338 17.6495 59.6754 17.5867 59.6044C17.4495 59.4688 17.3728 59.2878 17.3728 59.0995C17.3728 58.9112 17.4495 58.7302 17.5867 58.5946L18.2259 58.06C18.3801 57.9406 18.577 57.8832 18.775 57.8998C18.9729 57.9164 19.1562 58.0059 19.2861 58.1491H19.3641Z" fill="#EF384C"/>
<path d="M18.9595 54.6281C18.0552 52.4453 16.3558 50.3515 13.0816 51.0494C11.7366 51.3215 10.5461 52.0608 9.74199 53.1231C8.93787 54.1854 8.57772 55.4948 8.73168 56.7961C8.88739 57.9519 9.2681 59.0699 9.85425 60.0927C10.8053 61.4143 11.9902 61.7261 12.5671 62.8101C13.144 63.8942 18.9595 54.6281 18.9595 54.6281Z" fill="#7A553C"/>
<path d="M11.8183 60.4211C12.1786 61.2223 12.4453 62.0589 12.6134 62.9158C12.894 63.0197 13.0655 63.287 13.4086 63.3909C14.7784 63.8317 16.2664 63.8055 17.6182 63.3167C17.6182 63.3167 17.6182 63.6285 17.244 63.2127L11.8494 60.3914L11.8183 60.4211Z" fill="#F0BB8F"/>
<path opacity="0.5" d="M11.8172 60.4211C12.3332 61.4651 12.5893 62.6085 12.5656 63.7622C12.8358 63.8862 13.1177 63.9856 13.4075 64.0592C14.6876 64.3258 15.995 64.4553 17.3053 64.4452C17.2633 64.0236 17.3164 63.5983 17.4612 63.1979L11.8484 60.3914L11.8172 60.4211Z" fill="#E8AB79"/>
<path d="M11.5676 60.3341C11.9043 61.2476 12.5663 62.0199 13.4386 62.517C14.5938 63.2316 15.8785 63.7351 17.2272 64.0019C17.8041 63.9128 18.2718 64.0019 18.9111 62.517C19.6051 61.3995 19.9512 60.1172 19.9089 58.8195C19.7218 57.3345 19.9089 54.3647 17.8197 53.6073C16.9756 53.348 16.0667 53.3522 15.2254 53.6194C14.384 53.8865 13.6542 54.4025 13.1423 55.0923C12.3271 56.1433 11.9494 57.4446 12.0822 58.7452C12.0822 58.7452 10.8972 57.6315 10.523 57.6464C10.1488 57.6612 9.83702 57.9434 10.1956 58.6858C10.5542 59.4283 10.7101 59.265 10.8037 59.6659C10.8972 60.0668 11.0064 60.4529 11.2402 60.5569C11.4741 60.6608 11.5676 60.3341 11.5676 60.3341Z" fill="#F0BB8F"/>
<path d="M16.8555 53.2347C16.8555 53.2347 15.4211 57.7786 12.2873 59.1745L10.1825 55.7443L12.7082 52.8932L16.8555 53.2347Z" fill="#7A553C"/>
<path d="M16.246 53.515C17.2858 54.5395 18.5249 55.3615 19.8943 55.9354C19.8943 55.9354 19.255 52.6537 17.0411 51.5697L16.246 53.515Z" fill="#7A553C"/>
<path d="M10.0104 52.7881C8.93466 54.7631 10.1352 57.2429 12.3803 56.9905C13.2659 56.8052 14.1008 56.4452 14.8313 55.9337C15.5617 55.4222 16.1714 54.7704 16.6211 54.0206C16.0754 55.357 14.6878 58.1636 12.3335 59.1733L11.7722 58.2675C11.3981 57.9408 10.8991 57.5696 10.6653 57.5844C10.4314 57.5993 9.97927 57.8814 10.3379 58.6239C10.6965 59.3664 10.8524 59.203 10.9459 59.604C11.0395 60.0049 11.1486 60.391 11.3825 60.4949C11.6163 60.5989 11.5696 60.3316 11.5696 60.3316C11.7255 60.6137 11.8814 60.9701 12.1153 61.3265C12.275 61.7715 12.3949 62.2285 12.4739 62.6927C11.8814 61.668 10.7276 61.3414 9.79217 60.0346C9.20602 59.0118 8.82532 57.8938 8.66961 56.738C8.59708 56.0273 8.67868 55.3099 8.90933 54.6304C9.13998 53.951 9.51477 53.3239 10.0104 52.7881Z" fill="#694329"/>
<path d="M22.0465 93.236C22.1401 93.4291 22.2492 93.6518 22.3428 93.8894C19.0606 95.5497 15.4595 96.5599 11.7564 96.8593C11.7564 96.8593 12.9881 111.531 14.2198 115.941C11.6484 115.931 9.09903 115.489 6.68927 114.634C6.68927 114.634 5.97208 108.843 5.97208 104.492C5.97208 95.2556 5.50434 95.1962 7.81183 91.7957L20.0041 92.2411L22.0465 93.236Z" fill="#B8402D"/>
<path d="M10.7267 66.5109C12.1672 67.399 13.7457 68.0655 15.404 68.4858C17.0017 68.2728 18.5299 67.7251 19.8787 66.8821L19.1147 85.0132H10.3837L10.7267 66.5109Z" fill="#F8F3E0"/>
<path d="M23.4029 71.9003C22.826 69.3759 24.8373 69.168 24.0265 68.0246C23.7328 67.6381 23.3491 67.3217 22.9055 67.1001C22.4619 66.8786 21.9704 66.7579 21.4696 66.7476C20.4033 66.6334 19.3559 66.394 18.3513 66.0348L15.2331 72.7319L11.0235 66.2278C11.0235 66.2278 7.4999 66.9109 5.95638 67.0149C3.25911 67.193 2.71342 69.0492 2.12095 71.5588C1.52849 74.0683 0.561844 78.5083 0.37475 79.6666C-0.0710526 81.0344 -0.119543 82.4918 0.234428 83.8838C0.407568 84.4058 0.702187 84.884 1.09632 85.2825C1.49045 85.681 1.97393 85.9897 2.51073 86.1855H3.36825C3.36825 86.1855 6.06552 86.6903 6.72034 86.1855C7.87409 85.3242 6.58002 91.7837 6.2682 93.2686C6.25232 93.3528 6.26878 93.4397 6.31458 93.5133C6.36038 93.5869 6.43246 93.6424 6.51765 93.6696C11.8531 95.1862 17.5373 95.1862 22.8728 93.6696C22.9576 93.6435 23.0311 93.5916 23.0818 93.5218C23.1325 93.452 23.1577 93.3683 23.1534 93.2835C22.9351 91.4867 21.8905 82.0425 22.8104 78.9983C23.5412 76.7004 23.7432 74.2794 23.4029 71.9003Z" fill="#00ABE1"/>
<path d="M6.50148 93.67C6.41629 93.6428 6.34421 93.5873 6.29841 93.5137C6.25261 93.4401 6.23614 93.3533 6.25202 93.269C6.56385 91.7841 7.81114 85.3246 6.70417 86.1859C6.45605 86.3323 6.16974 86.4095 5.87783 86.4086L8.01382 85.2058L8.66865 91.7544C8.66865 91.7544 19.3798 92.9572 22.9345 91.3535C23.0125 92.2147 23.0905 92.8384 23.1372 93.2542C23.1415 93.339 23.1164 93.4228 23.0656 93.4925C23.0149 93.5623 22.9414 93.6143 22.8566 93.6403C17.5242 95.1666 11.8399 95.1769 6.50148 93.67Z" fill="#0596CB"/>
<path d="M7.48364 83.2153C7.48364 83.2153 4.92669 81.864 4.80196 81.7303C4.67724 81.5967 7.48364 73.1622 7.48364 73.1622L7.0315 80.7206C7.11276 81.5769 7.26393 82.4259 7.48364 83.2598V83.2153Z" fill="#0596CB"/>
<path d="M20.1907 67.0161C20.8022 66.8765 21.4383 66.8652 22.0549 66.9832C22.6714 67.1011 23.2536 67.3455 23.7611 67.6992C25.6476 69.5108 26.2401 72.6886 26.8793 76.787C27.2223 79.1035 27.7836 81.7764 27.8148 82.7268C27.846 83.6772 23.4649 84.4493 23.4649 84.4493L21.2821 76.2228C20.9216 75.4066 20.6195 74.5682 20.3778 73.7132C19.7877 71.5226 19.7237 69.2335 20.1907 67.0161Z" fill="#00ABE1"/>
<path d="M22.4821 80.7942L22.3106 70.5332C23.0633 72.9204 24.0444 75.2367 25.2417 77.453L25.1326 84.0462C24.2283 84.2838 23.4331 84.4174 23.4331 84.4174L22.4821 80.7942Z" fill="#0596CB"/>
<path d="M28.4394 77.2028C29.4465 76.963 30.4162 76.5985 31.3238 76.1187C31.7447 75.6881 32.5087 73.5349 32.0721 72.8667C31.6356 72.1985 30.934 71.3818 30.7001 71.8273C30.4663 72.2727 30.7001 72.4064 30.7001 72.4064C30.7001 72.4064 29.9829 71.5006 29.6555 71.6936C29.3281 71.8867 29.5776 73.1786 29.7646 73.5201C29.9517 73.8616 29.2501 74.0844 28.8292 74.0695C28.4082 74.0547 27.0518 73.5201 25.2588 75.5545C25.2588 75.5545 25.4147 77.0394 26.1943 77.3661C26.9738 77.6928 28.1899 77.6185 28.4394 77.2028Z" fill="#F0BB8F"/>
<path opacity="0.5" d="M26.1943 77.3638C26.9582 77.631 28.1899 77.6162 28.4394 77.2004C29.4465 76.9606 30.4162 76.5962 31.3238 76.1164C31.7447 75.6858 32.5087 73.5326 32.0721 72.8644C31.8071 75.2106 27.1297 77.8835 25.2588 75.5521C25.2588 75.5521 25.4147 77.0965 26.1943 77.3638Z" fill="#E8AB79"/>
<path d="M28.4384 77.1998C28.4384 77.1998 29.3271 86.1095 24.7433 85.4858C20.1595 84.8621 25.2578 75.5515 25.2578 75.5515C25.2578 75.5515 26.0686 78.1502 28.4384 77.1998Z" fill="#00ABE1"/>
<path d="M5.46775 85.8763C5.46775 85.8763 7.13108 86.0519 8.51923 86.4713C9.90738 86.8907 11.888 88.5648 13.5653 88.5078C15.2425 88.4508 15.8037 87.5229 15.3825 87.3498C14.2535 86.8363 13.1661 86.2435 12.1294 85.5765C12.0318 85.3385 14.0839 86.5961 14.0839 86.156C14.0839 85.7159 12.1294 84.508 11.1389 84.3049C10.5064 84.1955 10.0567 84.6075 9.092 84.5754C6.21808 83.6967 6.24976 83.6622 6.24976 83.6622L6.06781 84.5889L5.46775 85.8763Z" fill="#F0BB8F"/>
<rect width="3.15366" height="6.77734" rx="1" transform="matrix(-0.743868 -0.668326 -0.633007 0.774146 33.4365 70.5083)" fill="#12AAE1"/>
<rect width="2.55893" height="5.49924" rx="1" transform="matrix(-0.743868 -0.668326 -0.633007 0.774146 32.6616 70.7039)" fill="#D1F0FA"/>
<path d="M44.5087 29.5427C44.5016 29.5 44.4946 29.4573 44.4841 29.4146C44.4524 29.2937 44.4173 29.1727 44.3751 29.0553C44.3751 29.0482 44.3681 29.0375 44.3646 29.0304C44.3189 28.9058 44.2662 28.7813 44.2065 28.6603C44.1327 28.5074 44.0449 28.3615 43.95 28.2227L43.943 28.212C43.8551 28.084 43.7568 27.9594 43.6513 27.8456C43.6373 27.8313 43.6268 27.8171 43.6162 27.8029C43.5213 27.6997 43.4124 27.6036 43.3035 27.5111C43.2789 27.4933 43.2613 27.4684 43.2367 27.4507C43.1067 27.3439 42.9662 27.2478 42.8186 27.1625L34.4317 22.2561C33.8836 21.9359 33.2723 21.7758 32.6609 21.7758C32.0495 21.7758 31.4382 21.9359 30.8901 22.2561L22.5067 27.1589C22.3591 27.2443 22.2186 27.3439 22.0886 27.4471C22.064 27.4649 22.0429 27.4862 22.0218 27.5076C21.9129 27.6001 21.8075 27.6961 21.7091 27.7993C21.695 27.8136 21.6845 27.8278 21.674 27.842C21.5686 27.9594 21.4702 28.0804 21.3823 28.2085L21.3753 28.2192C21.2804 28.3579 21.1961 28.5038 21.1188 28.6568C20.8764 29.1478 20.7358 29.6921 20.7358 30.2614V40.0671C20.7358 40.6363 20.8764 41.1807 21.1188 41.6717C21.1926 41.8247 21.2804 41.967 21.3753 42.1093L21.3823 42.12C21.4702 42.2481 21.5686 42.3726 21.674 42.4865C21.688 42.5007 21.6986 42.5149 21.7126 42.5291C21.8075 42.6323 21.9129 42.7284 22.0218 42.8209C22.0464 42.8422 22.0675 42.8636 22.0886 42.8814C22.2186 42.9881 22.3591 43.0842 22.5067 43.1696L24.0983 44.1018L21.6599 49.9581L29.5022 47.2612L30.8901 48.0724C31.0271 48.1542 31.1676 48.2218 31.3117 48.2823C31.5998 48.4033 31.8985 48.4816 32.2041 48.5207C32.5063 48.5598 32.8155 48.5598 33.1177 48.5207C33.5744 48.4602 34.0206 48.3108 34.4317 48.0688L42.8151 43.166C42.9627 43.0806 43.1032 42.981 43.2332 42.8778C43.2578 42.86 43.2789 42.8351 43.3 42.8173C43.4089 42.7248 43.5143 42.6288 43.6092 42.5256C43.6232 42.5114 43.6338 42.4971 43.6478 42.4829C43.7532 42.3655 43.8516 42.2445 43.9395 42.1164L43.9465 42.1058C44.0413 41.967 44.1257 41.8211 44.203 41.6681C44.2627 41.5472 44.3154 41.4226 44.3611 41.2945C44.3611 41.2874 44.3646 41.2803 44.3681 41.2732C44.4103 41.1558 44.4489 41.0348 44.477 40.9103C44.4876 40.8712 44.4946 40.8285 44.5016 40.7858C44.5227 40.6897 44.5403 40.5972 44.5543 40.5011C44.5719 40.3588 44.5824 40.2129 44.5824 40.0635V30.2614C44.5824 30.112 44.5719 29.9661 44.5543 29.8238C44.5438 29.7277 44.5227 29.6352 44.5016 29.5427H44.5087Z" fill="#DBEFFE"/>
<path d="M31.2144 29.3612V36.2261L37.4049 33.2634C37.8455 34.1891 38.0758 35.2009 38.0793 36.2261C38.0793 37.5839 37.6767 38.9112 36.9224 40.0401C36.1681 41.169 35.0959 42.0489 33.8415 42.5685C32.5871 43.0881 31.2068 43.224 29.8751 42.9592C28.5435 42.6943 27.3203 42.0405 26.3602 41.0804C25.4001 40.1203 24.7463 38.8971 24.4814 37.5654C24.2165 36.2337 24.3525 34.8534 24.872 33.599C25.3916 32.3446 26.2715 31.2725 27.4005 30.5182C28.5294 29.7638 29.8567 29.3612 31.2144 29.3612Z" fill="#63CDF6"/>
<path d="M32.2984 34.06V25.3885C33.9617 25.3919 35.5901 25.8564 36.9964 26.7284C38.4026 27.6004 39.5295 28.8445 40.2473 30.3176L32.2984 34.06Z" fill="#12AAE1"/>
</svg>
