<svg width="30" height="30" viewBox="0 0 30 30" fill="none" xmlns="http://www.w3.org/2000/svg">
<path d="M10.7754 9.15759C10.293 9.43632 9.918 9.8756 9.71248 10.4027C9.41571 10.9471 9.24496 11.5541 9.21336 12.1769C9.18177 12.7997 9.29019 13.4217 9.53026 13.9947C9.73701 14.5111 9.90158 15.0441 10.0223 15.5884C10.0948 15.9236 10.0874 16.2717 10.0007 16.6033C9.91395 16.935 9.75051 17.2402 9.52418 17.4933C9.16456 17.9346 8.83187 18.3983 8.52802 18.8816C8.25482 19.2953 8.11909 19.7883 8.14098 20.2874C8.16286 20.7864 8.3412 21.265 8.64951 21.6519C9.00181 22.1375 9.38446 22.6044 9.73676 23.0899C9.94504 23.3245 10.0991 23.6041 10.1874 23.908C10.2758 24.212 10.2961 24.5324 10.247 24.8455C10.1548 25.2102 10.0138 25.5601 9.82789 25.8851C9.62744 26.2586 9.37232 26.6073 9.13543 26.9621C8.77201 27.4514 8.5604 28.0414 8.52802 28.6554C8.49765 28.6554 8.47336 28.6554 8.46122 28.6554C7.56832 28.2383 7.48329 28.2943 7.93885 27.2609C8.12715 26.8376 8.45513 26.4765 8.67987 26.0719C8.89999 25.6863 9.08309 25.2798 9.22656 24.8579C9.2656 24.6559 9.25965 24.4474 9.20917 24.248C9.15869 24.0486 9.06499 23.8634 8.93501 23.7062C8.89181 23.8867 8.85934 24.0696 8.83781 24.2541C8.79464 24.7943 8.61458 25.3136 8.31544 25.7606C7.90848 26.4205 7.51366 27.0929 7.10062 27.8025C6.55557 27.5561 6.06406 27.2005 5.65498 26.7567L6.22595 26.3894C6.0741 25.7669 5.79468 25.6174 5.26623 25.9038C5.15399 25.988 5.01389 26.0235 4.87629 26.0025C4.7387 25.9816 4.61474 25.9058 4.53129 25.7917C4.36283 25.6401 4.17963 25.5066 3.9846 25.3933L4.06965 25.2439C4.18811 25.1574 4.31418 25.0823 4.44624 25.0198C4.58595 24.9638 4.74994 24.9762 4.88964 24.914C5.03029 24.8387 5.16442 24.7512 5.29055 24.6525C5.15085 24.4907 5.04755 24.2416 4.87748 24.1794C4.65037 24.1382 4.41653 24.1641 4.20326 24.2541C3.95916 24.352 3.72348 24.4707 3.49868 24.6089L3.17674 24.2105L2.85483 23.7996C3.29968 23.4311 3.83214 23.1905 4.39764 23.1024C4.47641 23.0875 4.55775 23.1045 4.62456 23.1498C4.69138 23.1951 4.7385 23.2651 4.75603 23.3452C5.00507 24.1047 5.05366 24.1856 5.97085 23.8743C6.73501 23.5186 7.43844 23.0394 8.05426 22.455C7.92063 22.2122 7.79308 21.9943 7.67767 21.7702C7.38402 21.2805 7.23723 20.7132 7.25559 20.1388C7.27395 19.5644 7.45664 19.0081 7.78092 18.5392C8.06033 18.1097 8.33367 17.6863 8.61915 17.263C8.88716 16.8942 9.05575 16.4595 9.108 16.0028C9.16024 15.546 9.09429 15.0832 8.91677 14.6608C8.43523 13.5411 8.34724 12.2849 8.66775 11.1061C8.82988 10.666 9.01645 10.2357 9.22656 9.81747C9.03109 9.94862 8.85164 10.1033 8.69203 10.2782C8.34907 10.7081 8.10004 11.2084 7.96173 11.7454C7.82342 12.2823 7.79904 12.8434 7.89025 13.3908C8.02995 14.1628 8.18787 14.9285 8.30328 15.7004C8.37159 16.2095 8.24775 16.7261 7.95705 17.1447C7.61698 17.6513 7.30863 18.1794 7.03382 18.726C6.81515 19.168 6.69364 19.6535 6.5175 20.1142C6.48621 20.2164 6.42975 20.3086 6.35352 20.3819C6.15307 20.5562 5.93441 20.7056 5.74611 20.8613C5.54202 21.0396 5.29993 21.1662 5.03934 21.2311C4.77876 21.296 4.50694 21.2972 4.24579 21.2348C4.2883 21.5647 4.33084 21.8573 4.37336 22.1873C3.78263 22.2605 3.22007 22.4877 2.73942 22.8472C2.38105 23.0401 2.25347 23.009 2.07125 22.6542C1.98621 22.4923 1.93155 22.318 1.85259 22.125C2.624 21.8387 3.17066 21.1227 4.1243 21.0978C4.08876 20.8469 4.03395 20.5991 3.96032 20.357C3.92995 20.2823 3.72343 20.2201 3.62017 20.2512C3.32183 20.3403 3.03125 20.4548 2.75154 20.5936C2.43569 20.7554 2.14416 20.9733 1.8283 21.129C1.40919 21.3282 1.17228 21.2099 1.0508 20.7617C1.00221 20.5874 0.983996 20.4068 0.947552 20.1952C1.63824 20.0446 2.29278 19.7547 2.87303 19.3423C3.10425 19.2132 3.35151 19.1168 3.60801 19.0559C3.80238 19.0061 3.88742 18.9314 3.87527 18.7322C3.86313 18.533 3.87527 18.396 3.87527 18.203C3.50221 18.1577 3.12456 18.2316 2.79407 18.4147C2.45392 18.5828 2.13201 18.7882 1.79186 18.9376C1.50636 19.0465 1.21417 19.1359 0.917188 19.2053C0.878541 19.2229 0.836242 19.2303 0.794105 19.2269C0.751967 19.2235 0.711299 19.2095 0.675767 19.1861C0.640234 19.1626 0.61095 19.1305 0.590535 19.0925C0.570119 19.0546 0.559207 19.0121 0.5588 18.9688C0.510207 18.7011 0.431265 18.4334 0.352301 18.1283C1.26949 18.1657 1.97408 17.6428 2.73334 17.263C3.03886 17.1037 3.36358 16.9865 3.6991 16.9144C3.8181 16.91 3.93128 16.8604 4.0166 16.7753C4.10191 16.6901 4.15328 16.5755 4.16074 16.4537C4.16074 16.2918 4.20933 16.1362 4.23363 15.9619C3.81958 15.8964 3.39589 15.9616 3.01881 16.1487C2.58754 16.3354 2.17453 16.5533 1.74934 16.7712C1.33716 16.9642 0.881757 17.0395 0.431268 16.9891C0.224748 16.9891 0.109316 16.8895 0.103242 16.6529C0.103242 16.3105 0.0607264 15.9619 0.0303559 15.5946C0.440047 15.7183 0.870053 15.7551 1.29408 15.7026C1.7181 15.6502 2.12723 15.5096 2.49644 15.2896C2.82444 15.1277 3.14029 14.9409 3.48044 14.804C3.77443 14.6955 4.07732 14.6142 4.38548 14.5612C4.62844 14.5176 5.084 13.9947 4.99289 13.7643C4.96664 13.7137 4.92844 13.6707 4.88174 13.6391C4.83505 13.6076 4.78136 13.5886 4.72563 13.5838C4.33189 13.6134 3.9427 13.6885 3.56549 13.8079C3.09171 13.9822 2.64829 14.2499 2.18666 14.4678C1.90909 14.6193 1.60416 14.7107 1.2907 14.7364C0.977248 14.7621 0.661954 14.7216 0.364424 14.6172C0.247035 14.5876 0.14516 14.513 0.0796635 14.4088C0.0141669 14.3047 -0.00996833 14.1788 0.0121529 14.0569C0.619563 8.71558 3.04918 4.58195 7.81128 1.88014C10.4282 0.428936 13.4082 -0.188828 16.3697 0.105921C20.2622 0.402243 23.8823 2.26412 26.4405 5.28541C28.6189 7.72978 29.8821 10.8859 30.0061 14.1939C30.0047 14.2595 29.9886 14.324 29.9591 14.3822C29.9296 14.4405 29.8875 14.4911 29.836 14.5301C29.5859 14.695 29.2984 14.7909 29.0014 14.8083C28.7045 14.8258 28.4082 14.7642 28.1413 14.6297C27.7465 14.4491 27.3638 14.2313 26.9751 14.0071C26.4618 13.6752 25.8526 13.5345 25.25 13.6087C25.1832 13.6087 25.1225 13.6461 25.0314 13.671C25.0739 13.8142 25.1164 13.9324 25.1528 14.0569C25.1812 14.1997 25.2576 14.3277 25.3686 14.4187C25.4796 14.5097 25.6182 14.5579 25.7603 14.555C26.2553 14.668 26.7376 14.8328 27.1998 15.0468C27.625 15.2211 28.0259 15.4452 28.4572 15.6008C28.9547 15.7907 29.5024 15.7907 30 15.6008C30 15.9806 30 16.3354 30 16.6903C30 16.8895 29.8846 16.9829 29.6659 17.0078C29.2183 17.0514 28.7676 16.9719 28.36 16.7774C27.9652 16.6031 27.5946 16.3977 27.1998 16.2234C26.7819 16.0067 26.3079 15.9305 25.8453 16.0055C25.8939 16.2607 25.9303 16.5035 25.9911 16.7339C25.9911 16.7899 26.0944 16.8397 26.1612 16.8584C26.5924 17.0202 27.0419 17.1572 27.4671 17.3377C27.8923 17.5183 28.1778 17.7486 28.5483 17.9042C28.9181 18.0371 29.2954 18.1473 29.6781 18.2342C29.6781 18.4396 29.6295 18.7011 29.587 18.9563C29.5445 19.2116 29.3501 19.3983 29.0403 19.2676C28.5604 19.0746 28.0866 18.8567 27.625 18.645C27.1973 18.3817 26.7139 18.228 26.2158 18.1968C26.2158 18.4583 26.1794 18.7197 26.1612 18.9127L29.1132 20.3446C29.1132 20.301 29.1132 20.3446 29.1132 20.3446C28.9249 21.3033 28.7001 21.4091 27.8437 20.9671C27.4306 20.7554 27.0055 20.5624 26.5742 20.3446C26.4217 20.3011 26.2647 20.2761 26.1065 20.2699C26.0518 20.5438 26.0032 20.7866 25.9668 20.9422L27.3031 21.6332C27.5267 21.7751 27.7578 21.9039 27.9955 22.0192C28.2446 22.1126 28.2324 22.2433 28.1474 22.4363C27.874 23.0588 27.789 23.0962 27.1938 22.7662C26.7447 22.4641 26.2288 22.2821 25.6934 22.2371C25.742 21.9134 25.7846 21.6145 25.8271 21.2659C25.5826 21.3233 25.3281 21.3187 25.0857 21.2525C24.8434 21.1863 24.6204 21.0606 24.4361 20.8862L24.266 20.7554C24.0562 20.6243 23.876 20.4487 23.7378 20.2404C23.5995 20.0321 23.5062 19.7959 23.4643 19.5477C23.3472 19.1152 23.1582 18.7066 22.9055 18.34C22.6139 17.8295 22.298 17.3502 21.9883 16.8335C21.8172 16.5269 21.7192 16.1833 21.7023 15.8307C21.6855 15.478 21.7501 15.1262 21.8911 14.804C22.1455 14.1331 22.2586 13.4147 22.223 12.6959C22.1875 11.977 22.0039 11.274 21.6846 10.633C21.512 10.2793 21.2111 10.0089 20.8463 9.87973C20.9192 10.0416 20.986 10.2035 21.065 10.3591C21.3715 10.9613 21.5505 11.623 21.5903 12.301C21.6301 12.979 21.5297 13.658 21.2958 14.2935C21.1804 14.6546 21.0771 15.0281 20.9921 15.4079C20.9336 15.6565 20.9245 15.9147 20.9652 16.1671C21.0059 16.4194 21.0956 16.6608 21.229 16.877C21.4902 17.3004 21.7696 17.7112 22.0368 18.1221C22.2008 18.3898 22.3648 18.6575 22.5106 18.9376C22.7568 19.3655 22.8806 19.8557 22.8677 20.3522C22.8548 20.8487 22.7058 21.3315 22.4377 21.7453C22.0368 22.4051 22.055 22.4176 22.6442 22.9094C23.1628 23.403 23.7868 23.7654 24.4665 23.9677C24.9767 24.086 25.0253 24.0611 25.1954 23.5631C25.2254 23.4571 25.2619 23.3531 25.3047 23.2518C25.3179 23.2031 25.342 23.1582 25.3752 23.1207C25.4084 23.0832 25.4496 23.0543 25.4957 23.0361C25.5418 23.018 25.5913 23.0111 25.6404 23.0162C25.6895 23.0212 25.7368 23.0379 25.7785 23.065C26.2401 23.2891 26.7017 23.5257 27.2363 23.7934C27.0297 24.0549 26.8536 24.2977 26.6288 24.5156C26.5924 24.5591 26.4527 24.5467 26.3737 24.5156C26.0959 24.391 25.8121 24.2809 25.5234 24.1856C25.0071 24.0549 24.837 24.1856 24.7459 24.721L25.9607 25.2439C25.657 25.5427 25.4201 25.7855 25.1711 26.0159C25.1346 26.0159 25.0374 26.0159 24.9767 26.0159C24.7783 25.9353 24.5755 25.8667 24.3693 25.8104C24.2531 25.7945 24.1354 25.8258 24.0413 25.8976C23.6829 26.2773 23.7011 26.3458 24.1446 26.6197L24.4543 26.8438L23.0026 27.815C22.4681 26.8999 21.9093 26.0408 21.4477 25.1381C21.2683 24.6765 21.138 24.1964 21.0589 23.7062C21.0029 23.7673 20.9596 23.8393 20.9314 23.9179C20.7668 24.4143 20.7973 24.9569 21.0164 25.4307C21.2836 25.91 21.6238 26.352 21.885 26.8314C22.0615 27.1371 22.2119 27.4579 22.3345 27.7901C22.4681 28.1636 22.4073 28.2632 22.0368 28.4126C21.8971 28.4749 21.7574 28.5185 21.5752 28.5869C21.5206 27.5224 20.8646 26.7193 20.3604 25.8914C20.2247 25.667 20.103 25.4342 19.9959 25.1941C19.8277 24.8492 19.7677 24.4594 19.8243 24.0782C19.8808 23.697 20.0511 23.3431 20.3118 23.065C20.7066 22.5732 21.0771 22.0627 21.4416 21.546C21.7669 21.1314 21.9443 20.6152 21.9443 20.0831C21.9443 19.551 21.7669 19.0348 21.4416 18.6201C21.1561 18.2093 20.8342 17.8108 20.573 17.3751C20.308 17.0274 20.1347 16.6158 20.0698 16.1797C20.0049 15.7436 20.0506 15.2977 20.2025 14.8849C20.4793 14.1312 20.6828 13.3514 20.8099 12.5566C20.8905 11.9518 20.8252 11.3359 20.6198 10.7628C20.4144 10.1898 20.0751 9.67713 19.6315 9.26966C19.513 9.16499 19.3772 9.08276 19.2306 9.02686C19.8978 9.9188 20.251 11.0158 20.2328 12.1395C20.2221 12.7519 20.0833 13.3548 19.8259 13.9075C19.5968 14.4368 19.4039 14.9818 19.2488 15.5386C19.1928 15.7619 19.1878 15.9955 19.2341 16.2211C19.2805 16.4468 19.377 16.6584 19.5161 16.8397C19.8319 17.3253 20.16 17.8046 20.4697 18.2964C20.8681 18.8497 21.0926 19.5141 21.1136 20.2014C21.1209 20.6509 20.9795 21.0897 20.7127 21.4465C20.33 21.9632 19.9352 22.4736 19.589 23.009C19.3573 23.3046 19.1969 23.652 19.1209 24.023C19.0449 24.3941 19.0555 24.7782 19.1516 25.1443C19.2963 25.5008 19.4732 25.8426 19.6801 26.1653C19.9838 26.7505 20.2875 27.3294 20.6033 27.9084C20.609 27.9476 20.609 27.9874 20.6033 28.0266C20.7856 28.8173 20.7248 28.9293 19.9656 29.1783L19.6072 29.2966C19.8684 28.2632 19.4371 27.429 18.9451 26.6073C18.6583 26.1528 18.4026 25.6786 18.1798 25.1879C18.0152 24.8246 17.9553 24.4208 18.0069 24.0238C18.0586 23.6268 18.2197 23.2531 18.4713 22.9468C18.7507 22.567 19.0423 22.2059 19.3278 21.8324C19.4675 21.6457 19.6011 21.4527 19.7226 21.2535C20.0008 20.8549 20.1428 20.3733 20.1263 19.8836C20.1098 19.3938 19.9359 18.9234 19.6315 18.5454C19.3946 18.2155 19.1395 17.9229 18.8904 17.5743C18.6153 17.2613 18.4301 16.8764 18.355 16.4622C18.28 16.0481 18.3182 15.6207 18.4653 15.2273C18.7143 14.5114 18.9633 13.7955 19.2063 13.0733C19.4824 12.4048 19.5519 11.6656 19.4052 10.9554C19.2586 10.2452 18.903 9.59813 18.3863 9.10156C18.2515 8.97979 18.1073 8.86944 17.955 8.77162L17.8457 8.73427L17.9064 8.8152C18.4589 9.45502 18.805 10.2542 18.8974 11.1033C18.9899 11.9524 18.8241 12.8101 18.4228 13.5589C18.1676 14.113 17.8943 14.6608 17.6817 15.2273C17.5372 15.5822 17.488 15.9703 17.5393 16.3513C17.5905 16.7322 17.7404 17.0922 17.9732 17.3937C18.3195 17.8855 18.6597 18.3773 18.9573 18.9003C19.1404 19.1885 19.2487 19.5199 19.2721 19.863C19.2955 20.2061 19.2331 20.5497 19.0909 20.8613C18.9479 21.1183 18.7833 21.362 18.5989 21.5896C18.2527 22.0814 17.8761 22.5483 17.5663 23.0588C17.3244 23.4252 17.1921 23.856 17.1856 24.2983C17.1791 24.7407 17.2987 25.1753 17.5298 25.549C17.8396 26.0843 18.1373 26.6322 18.4045 27.1862C18.757 27.8584 18.8356 28.6462 18.6232 29.3776C18.6122 29.4537 18.5761 29.5237 18.5208 29.5758C18.4655 29.6279 18.3944 29.659 18.3195 29.6639C18.0644 29.6639 17.8092 29.776 17.5177 29.8382C17.5911 29.6237 17.654 29.4056 17.706 29.1846C17.8336 28.435 17.7117 27.6632 17.3598 26.9932C17.0743 26.3707 16.7524 25.7482 16.4244 25.1256C16.2377 24.8145 16.1419 24.4551 16.1484 24.0899C16.1548 23.7247 16.2632 23.369 16.4608 23.065C16.7281 22.6355 17.0682 22.2433 17.3476 21.82C17.6223 21.4564 17.8719 21.0736 18.0947 20.6745C18.2466 20.3969 18.3198 20.0813 18.3058 19.7634C18.2919 19.4455 18.1914 19.1379 18.0158 18.8754C17.8214 18.5641 17.5784 18.284 17.4084 17.9727C17.2383 17.6614 16.9711 17.2008 16.7159 16.8335C16.6658 16.7623 16.6024 16.7021 16.5294 16.6561C16.4564 16.6102 16.3753 16.5795 16.2907 16.5658C16.0592 16.5598 15.8285 16.5978 15.6104 16.6778C15.1451 16.8489 14.6362 16.8489 14.1709 16.6778C14.0467 16.6323 13.9186 16.5989 13.7882 16.5782C13.6829 16.5556 13.5731 16.5703 13.4771 16.6201C13.381 16.6699 13.3044 16.7517 13.2598 16.8521C12.9014 17.4747 12.537 18.0972 12.1604 18.7197C11.9837 18.941 11.859 19.2009 11.7958 19.4794C11.7326 19.7578 11.7326 20.0474 11.7959 20.3259C11.9073 20.6426 12.0606 20.9421 12.2515 21.2161C12.5369 21.627 12.8589 22.013 13.1626 22.3989C13.5294 22.7971 13.7579 23.308 13.8128 23.8527C13.8677 24.3974 13.7459 24.9454 13.4663 25.412C13.2172 25.8976 12.9682 26.3894 12.7313 26.8812C12.4639 27.3138 12.31 27.8099 12.2844 28.3214C12.2589 28.8329 12.3626 29.3425 12.5855 29.8009C12.294 29.8009 12.0449 29.7635 11.7898 29.7324C11.6959 29.7218 11.6078 29.6802 11.5388 29.614C11.4698 29.5478 11.4236 29.4605 11.4071 29.3651C11.309 28.9646 11.2896 28.5481 11.3501 28.1398C11.4106 27.7315 11.5497 27.3396 11.7594 26.987C12.0267 26.4828 12.3 25.9847 12.5491 25.468C12.7716 25.0147 12.8636 24.5057 12.8141 24.0008C12.7646 23.4958 12.5758 23.0157 12.2697 22.6168C12.0146 22.2495 11.717 21.9134 11.4375 21.5585C11.0645 21.1791 10.8391 20.6736 10.8033 20.1362C10.7675 19.5989 10.9239 19.0666 11.2432 18.6388C11.4801 18.2466 11.7412 17.8669 11.9963 17.4871C12.2688 17.1153 12.4343 16.6728 12.474 16.2096C12.5137 15.7464 12.4261 15.281 12.2211 14.8662C11.8588 14.0848 11.5463 13.28 11.2857 12.457C11.105 11.9181 11.0615 11.3407 11.1593 10.7797C11.2571 10.2187 11.4929 9.69249 11.8445 9.25096C11.9466 9.11994 12.023 8.96983 12.0692 8.80897C12.0055 8.83596 11.9444 8.86932 11.887 8.90858C11.4268 9.28092 11.0666 9.76711 10.8403 10.3214C10.614 10.8758 10.5289 11.48 10.5932 12.0773C10.6682 12.7284 10.8553 13.3608 11.146 13.9449C11.3544 14.4367 11.5309 14.942 11.6744 15.4576C11.7587 15.7905 11.7658 16.139 11.6951 16.4752C11.6244 16.8114 11.478 17.1259 11.2674 17.3937C10.982 17.7922 10.66 18.1719 10.4231 18.589C10.0962 19.0299 9.93415 19.5762 9.96647 20.129C9.99879 20.6818 10.2233 21.2044 10.5993 21.6021C10.903 22.0005 11.2067 22.3802 11.5286 22.7724C11.8207 23.132 12.0026 23.5722 12.0512 24.0374C12.0999 24.5027 12.0131 24.9722 11.802 25.3871C11.5469 25.9412 11.1945 26.4579 10.9151 26.987C10.5558 27.5372 10.3848 28.1941 10.4292 28.8546C10.4292 28.9791 10.4717 29.1099 10.496 29.2842C10.168 29.1783 9.88863 29.0912 9.56063 28.9791C9.49989 28.9791 9.44521 28.8484 9.43306 28.7737C9.34182 28.2989 9.42628 27.8062 9.66996 27.3917C9.91292 26.9372 10.2045 26.5014 10.4717 26.0594C10.7728 25.6013 10.9546 25.0721 11.0002 24.5218C11.0513 23.9573 10.8905 23.3941 10.5507 22.9468C10.2834 22.5919 9.99188 22.2495 9.7064 21.9071C9.24832 21.4524 8.97354 20.8379 8.93642 20.1854C8.8993 19.5328 9.10257 18.8898 9.50598 18.3836C9.78539 17.9602 10.1134 17.5494 10.3928 17.1385C10.6557 16.8026 10.819 16.3964 10.8631 15.9682C10.9073 15.54 10.8305 15.1078 10.6418 14.7231C10.5021 14.3744 10.3442 14.032 10.1863 13.6896C9.47561 12.2205 9.76715 10.8322 10.5507 9.48753C10.6327 9.3479 10.722 9.21283 10.818 9.08289V9.02063L10.7754 9.15759ZM7.98137 5.97644C8.68802 6.88858 9.18427 7.95267 9.43306 9.08912C11.179 8.19248 13.1049 7.72561 15.0577 7.72561C17.0105 7.72561 18.9364 8.19248 20.6823 9.08912C20.7491 7.84405 21.4719 6.93515 22.0065 5.92041C21.1439 5.92041 20.4758 6.35619 19.7044 6.54295C19.6619 5.81458 20.1296 5.24184 20.2268 4.55083C18.9633 4.65043 18.0097 5.38502 16.971 5.97021C16.7402 5.42238 16.5155 4.89322 16.3089 4.35784C16.3044 4.31287 16.3102 4.26743 16.3261 4.22523C16.3419 4.18303 16.3673 4.14527 16.4001 4.11504C16.7463 3.77265 17.1107 3.44272 17.457 3.10033C17.5424 3.00501 17.6177 2.90067 17.6817 2.78906C17.1168 2.75793 16.6309 2.70813 16.1389 2.70813C16.0253 2.71738 15.9121 2.68488 15.8198 2.61644C15.7274 2.548 15.6618 2.44808 15.6347 2.3346C15.4586 1.88015 15.246 1.43193 15.0273 0.977477C14.7542 1.41772 14.5203 1.88235 14.3288 2.36572C14.2948 2.48801 14.2191 2.59371 14.1154 2.66344C14.0116 2.73317 13.8869 2.76229 13.7639 2.74548C13.284 2.74548 12.7981 2.79527 12.2272 2.83262C12.3486 2.96335 12.4094 3.04428 12.4762 3.10654C12.7274 3.36147 12.9953 3.59859 13.278 3.81624C13.3605 3.8599 13.4336 3.9203 13.4927 3.99376C13.5519 4.06722 13.5958 4.1522 13.6219 4.24359C13.6481 4.33497 13.6558 4.43084 13.6447 4.52539C13.6336 4.61993 13.6039 4.71119 13.5574 4.79362C13.4295 5.24265 13.2237 5.6644 12.95 6.0387C12.543 5.79591 12.1725 5.54688 11.7716 5.34767C11.2371 5.07998 10.6843 4.84342 10.1316 4.61308C9.99071 4.59065 9.84728 4.59065 9.7064 4.61308C9.8704 4.9866 10.0283 5.28541 10.1377 5.59668C10.247 5.90795 10.3017 6.21922 10.3746 6.57407L10.2895 6.62388C9.57886 6.34997 8.88642 5.91419 7.98137 5.97644ZM17.8822 10.0291C17.8822 9.98556 17.8821 9.87973 17.8336 9.78012C17.7462 9.51544 17.6004 9.27498 17.4077 9.0774C17.2149 8.87982 16.9802 8.73045 16.722 8.64089C15.702 8.24395 14.5793 8.22194 13.5452 8.57863C13.2889 8.65809 13.0517 8.79163 12.8487 8.97068C12.6458 9.14973 12.4817 9.37033 12.3669 9.61828C12.3111 9.7318 12.296 9.86182 12.3243 9.98557C12.3243 10.0354 12.5187 10.0478 12.622 10.054C12.8771 10.054 13.1322 10.054 13.3873 10.054C14.0858 10.1101 14.3592 10.3591 14.4624 11.0314C14.4959 11.2626 14.4959 11.4975 14.4624 11.7287C14.4616 11.7743 14.4509 11.8192 14.4312 11.8601C14.4115 11.9011 14.3833 11.9371 14.3485 11.9656C14.3137 11.9941 14.2733 12.0144 14.23 12.0251C14.1867 12.0358 14.1416 12.0366 14.098 12.0275C13.8307 11.9964 13.5635 11.9963 13.2962 11.9777C13.0769 11.9906 12.8568 11.9781 12.6402 11.9403C12.2575 11.8158 12.0328 11.9403 12.0328 12.3263C12.0067 13.021 12.1617 13.7102 12.482 14.323C12.8023 14.9358 13.2763 15.4499 13.855 15.8125C13.9251 15.8577 14.0007 15.8933 14.0798 15.9183C14.5596 16.1364 15.0984 16.1775 15.6044 16.0345C16.1105 15.8915 16.5526 15.5732 16.8556 15.1339C17.4089 14.4116 17.7672 13.5528 17.8943 12.6438C17.911 12.4507 17.8818 12.2563 17.8093 12.0773C17.7607 11.9154 17.6513 11.8469 17.4327 11.8967C17.148 11.965 16.8533 11.9777 16.5641 11.9341C16.23 11.8719 15.9567 11.8532 15.8048 12.208C15.8048 12.2703 15.6287 12.3512 15.5922 12.3325C15.5464 12.3073 15.506 12.2728 15.4736 12.231C15.4413 12.1893 15.4175 12.1412 15.4039 12.0897C15.3533 11.8314 15.3269 11.5688 15.3249 11.3053C15.3024 11.1666 15.309 11.0245 15.3443 10.8885C15.3795 10.7526 15.4427 10.6259 15.5294 10.5169C15.6162 10.4079 15.7247 10.3192 15.8476 10.2565C15.9705 10.1939 16.105 10.1588 16.2421 10.1536C16.7862 10.0821 17.3337 10.0405 17.8822 10.0291ZM25.2136 9.92331C24.7884 9.74278 24.3997 9.56224 23.9988 9.41283C23.3645 9.16894 22.6756 9.11496 22.0125 9.2572C21.7999 9.30077 21.5691 9.35057 21.5205 9.64316C22.595 10.2665 23.5108 11.141 24.1932 12.1956C24.2271 12.2339 24.2683 12.2647 24.3142 12.2861C24.3602 12.3075 24.41 12.3191 24.4604 12.3201C25.2874 12.251 26.1166 12.4214 26.8536 12.8119C27.2539 13.0325 27.6727 13.2158 28.1049 13.3597C28.3274 13.4398 28.5658 13.4624 28.7989 13.4255C29.032 13.3886 29.2526 13.2933 29.4412 13.148C29.022 12.5255 28.609 11.903 28.2263 11.2804C27.823 10.7449 27.529 10.1315 27.362 9.47687C27.1951 8.82228 27.1585 8.13992 27.2545 7.47052C27.2611 7.41779 27.2551 7.36421 27.2371 7.31435C27.2191 7.2645 27.1897 7.21984 27.1512 7.18416C27.1015 7.1689 27.0492 7.16488 26.9978 7.1724C26.9464 7.17992 26.8972 7.1988 26.8536 7.22772C26.5231 7.41277 26.2322 7.66414 25.9985 7.96681C25.7647 8.26949 25.5928 8.6173 25.493 8.98951C25.3776 9.29455 25.2986 9.61205 25.2136 9.92331ZM4.80459 9.86106C4.80459 9.73655 4.76209 9.63071 4.74387 9.52488C4.61258 8.66727 4.18066 7.88817 3.52905 7.33356C3.43804 7.25204 3.33568 7.1849 3.22534 7.13435C3.01882 7.04097 2.92162 7.13434 2.94592 7.34601C3.07133 8.31297 2.89488 9.2958 2.44179 10.1536C2.04698 10.8945 1.58534 11.6042 1.14193 12.3201C0.971852 12.6064 0.78962 12.8804 0.601323 13.1729C0.843589 13.3111 1.11342 13.3907 1.39024 13.4058C1.66707 13.4209 1.94361 13.3711 2.19882 13.2601C2.71511 13.0547 3.21928 12.7932 3.73558 12.5815C4.32377 12.3113 4.972 12.2081 5.61246 12.2827C5.67116 12.2764 5.72794 12.2577 5.77918 12.2277C5.83042 12.1977 5.87499 12.1571 5.91008 12.1084C6.50938 11.2513 7.25169 10.5095 8.10283 9.91708C8.26683 9.81125 8.41262 9.66807 8.61307 9.50621C7.20995 8.76539 6.03158 9.44396 4.78031 9.86106H4.80459ZM13.7639 11.268L13.8307 11.1808C13.7475 11.0759 13.6561 10.978 13.5574 10.8882C13.259 10.6794 12.8926 10.5989 12.537 10.6641C12.4713 10.6613 12.4061 10.6771 12.3486 10.7097C12.2911 10.7422 12.2434 10.7904 12.2108 10.8489C12.1782 10.9074 12.1619 10.9739 12.1637 11.0412C12.1655 11.1086 12.1854 11.1741 12.2211 11.2306C12.2512 11.2584 12.2871 11.279 12.3259 11.2908C12.3648 11.3027 12.4058 11.3055 12.4458 11.2991C12.7313 10.9941 13.0532 11.0875 13.3934 11.1684L13.7639 11.268ZM16.2421 11.2182C16.4493 11.13 16.6725 11.0884 16.8967 11.0959C17.1209 11.1034 17.3409 11.1599 17.542 11.2618C17.6248 11.2902 17.7143 11.2902 17.7971 11.2618C17.8319 11.144 17.8319 11.0184 17.7971 10.9007C17.7603 10.8519 17.7135 10.8121 17.6599 10.7841C17.6064 10.7562 17.5474 10.7407 17.4873 10.7388C17.1166 10.7626 16.7474 10.8083 16.3818 10.8758C16.1996 10.8945 16.151 11.0501 16.2421 11.2182Z" fill="#097757"/>
</svg>
