<svg width="30" height="30" viewBox="0 0 30 30" fill="none" xmlns="http://www.w3.org/2000/svg">
<ellipse cx="14.9999" cy="15" rx="14.9999" ry="15" fill="white"/>
<path d="M1.83371 19.3641C1.27449 19.1514 0.83883 18.8412 0.525463 18.4336C0.212096 18.026 0.0388524 17.5317 0.00636925 16.9502L0 16.8336H2.39547L2.40757 16.889C2.44452 17.0489 2.5305 17.1878 2.66553 17.3069C2.80056 17.426 2.97062 17.519 3.17507 17.5865C3.37952 17.654 3.60499 17.6877 3.85085 17.6877C4.11262 17.6877 4.33682 17.6553 4.52344 17.5897C4.70942 17.5241 4.854 17.4342 4.95655 17.3196C5.05909 17.205 5.11005 17.0737 5.11005 16.9266V16.9202C5.11005 16.7113 5.00941 16.554 4.80878 16.447C4.60815 16.3406 4.2623 16.2426 3.77059 16.1521L2.88017 15.9922C1.99994 15.8368 1.3248 15.54 0.856027 15.1018C0.38725 14.6636 0.152862 14.1006 0.152862 13.4127V13.4063C0.152862 12.8127 0.309545 12.2987 0.622912 11.8643C0.936279 11.4306 1.36684 11.0943 1.91587 10.8567C2.46554 10.6191 3.08972 10.5 3.79034 10.5C4.58076 10.5 5.24635 10.6108 5.78646 10.8318C6.32657 11.0529 6.74057 11.3675 7.02719 11.7745C7.31381 12.1821 7.46921 12.6624 7.49405 13.2152L7.50042 13.3503H5.10495L5.09858 13.2891C5.08202 13.1254 5.01769 12.9853 4.90496 12.8681C4.79222 12.7515 4.64254 12.6605 4.45656 12.5949C4.26994 12.5293 4.05848 12.4968 3.82091 12.4968C3.58334 12.4968 3.38398 12.5286 3.2222 12.5923C3.06042 12.656 2.93877 12.742 2.85661 12.8503C2.77444 12.9585 2.73368 13.0808 2.73368 13.2159V13.2222C2.73368 13.4229 2.83368 13.5776 3.03495 13.6859C3.23558 13.7942 3.55722 13.8897 3.99925 13.9713L4.88967 14.1311C5.83996 14.3031 6.54376 14.5916 7.00299 14.9974C7.46157 15.4024 7.69086 15.9661 7.69086 16.6865V16.6929C7.69086 17.303 7.538 17.8323 7.23292 18.2807C6.92783 18.7291 6.48644 19.075 5.90939 19.3189C5.3317 19.5622 4.63554 19.6845 3.82091 19.6845C3.05533 19.6845 2.39293 19.5782 1.83371 19.3648V19.3641Z" fill="#388841"/>
<path d="M7.40259 10.6597H10.007V19.5232H7.40259V10.6597ZM8.71083 15.1806H10.7439C11.1738 15.1806 11.5108 15.0729 11.7541 14.8583C11.9974 14.643 12.1197 14.3252 12.1197 13.9029V13.8908C12.1197 13.4647 11.998 13.1469 11.7541 12.9354C11.5101 12.7246 11.1738 12.6189 10.7439 12.6189H8.71083V10.6597H11.3643C12.056 10.6597 12.6553 10.7928 13.161 11.059C13.6667 11.3253 14.0578 11.6998 14.3342 12.1832C14.6107 12.6666 14.7489 13.2354 14.7489 13.8908V13.9029C14.7489 14.5583 14.6107 15.1252 14.3342 15.6041C14.0578 16.0831 13.6667 16.4532 13.161 16.713C12.6553 16.9729 12.0566 17.1028 11.3643 17.1028H8.71083V15.18V15.1806Z" fill="#388841"/>
<path d="M14.4126 10.6597H18.2023C19.0991 10.6597 19.8659 10.8253 20.5029 11.1571C21.1398 11.4889 21.627 11.9781 21.9646 12.6252C22.3022 13.2724 22.4716 14.0685 22.4716 15.015V15.0271C22.4716 15.9729 22.3028 16.7818 21.9646 17.4538C21.627 18.1251 21.1392 18.6385 20.5029 18.9926C19.8659 19.3467 19.0991 19.5238 18.2023 19.5238H14.4126V10.6597ZM17.8342 17.4538C18.2679 17.4538 18.6329 17.3646 18.9278 17.1863C19.2227 17.0079 19.4449 16.7398 19.594 16.3818C19.7437 16.0232 19.8182 15.5723 19.8182 15.0271V15.015C19.8182 14.5195 19.7392 14.1016 19.5819 13.7622C19.4239 13.422 19.1972 13.1653 18.8997 12.9915C18.6029 12.8176 18.2475 12.7303 17.8342 12.7303H17.017V17.4532H17.8342V17.4538Z" fill="#388841"/>
<path d="M22.2283 10.6597H26.2212C26.9829 10.6597 27.6249 10.7762 28.1472 11.01C28.6695 11.2437 29.0657 11.5851 29.3357 12.0361C29.6058 12.4864 29.7414 13.0392 29.7414 13.6946V13.7067C29.7414 14.2596 29.6115 14.7653 29.3516 15.2239C29.0918 15.6825 28.7466 16.0162 28.3166 16.2252L30 19.5238H27.0886L25.688 16.6124H24.8339V19.5238H22.2295V10.6597H22.2283ZM25.9199 14.7755C26.2721 14.7755 26.5543 14.6755 26.7676 14.4742C26.9804 14.2736 27.0867 14.0118 27.0867 13.6883V13.6762C27.0867 13.3526 26.9785 13.0896 26.7613 12.887C26.5441 12.6845 26.2638 12.5832 25.9199 12.5832H24.8327V14.7761H25.9199V14.7755Z" fill="#388841"/>
</svg>
